<svg width="189" height="177" fill="none" xmlns="http://www.w3.org/2000/svg"><g clip-path="url(#clip0)" fill="#F9F9F9"><path d="M179.308 5.088h-58.927c-5.35 0-9.692 4.342-9.692 9.692v58.927c0 5.35 4.342 9.692 9.692 9.692h28.204c-.368 15.43-3.955 27.777-10.739 37.062-5.35 7.327-13.452 13.394-24.288 18.182-4.982 2.19-7.133 8.083-4.807 13.007l6.978 14.732c2.249 4.729 7.812 6.803 12.619 4.729 12.832-5.544 23.668-12.561 32.507-21.09 10.777-10.409 18.163-22.155 22.156-35.259C187.004 101.658 189 83.787 189 61.107V14.78c0-5.35-4.342-9.692-9.692-9.692zM20.554 171.072c12.677-5.524 23.455-12.541 32.352-21.051 10.874-10.409 18.298-22.117 22.291-35.123 3.993-13.007 5.99-30.937 5.99-53.79V14.78c0-5.35-4.342-9.692-9.692-9.692H12.568c-5.35 0-9.692 4.342-9.692 9.692v58.927c0 5.35 4.342 9.692 9.692 9.692H40.77c-.368 15.43-3.954 27.777-10.738 37.062-5.35 7.327-13.453 13.394-24.288 18.182-4.982 2.19-7.134 8.083-4.808 13.007l6.96 14.693c2.248 4.729 7.85 6.823 12.657 4.729z"/></g><defs><clipPath id="clip0"><path fill="#fff" d="M0 0h189v177H0z"/></clipPath></defs></svg>