<svg width="12" height="12" fill="none" xmlns="http://www.w3.org/2000/svg"><path d="M10.453.938H9.375V.375a.375.375 0 10-.75 0v.563h-5.25V.375a.375.375 0 10-.75 0v.563H1.547C.694.938 0 1.63 0 2.484v7.97A1.55 1.55 0 001.547 12h8.906c.853 0 1.547-.694 1.547-1.547V2.484c0-.853-.694-1.546-1.547-1.546zm-8.906.75h1.078v.375a.375.375 0 00.75 0v-.376h5.25v.375a.375.375 0 00.75 0v-.374h1.078c.44 0 .797.357.797.796v.891H.75v-.89c0-.44.357-.797.797-.797zm8.906 9.562H1.547a.798.798 0 01-.797-.797V4.125h10.5v6.328c0 .44-.357.797-.797.797z" fill="#B1B8CC"/></svg>