<svg width="12" height="11" fill="none" xmlns="http://www.w3.org/2000/svg"><g clip-path="url(#clip0)"><path d="M7.712 5.5l4.112-4.112a.599.599 0 000-.851l-.36-.36A.597.597 0 0011.038 0a.597.597 0 00-.425.176L6.5 4.289 2.387.177A.596.596 0 001.962 0a.596.596 0 00-.425.176l-.361.36a.602.602 0 000 .85L5.289 5.5 1.176 9.612A.598.598 0 001 10.04c0 .161.063.312.176.425l.36.36a.596.596 0 00.426.176.596.596 0 00.425-.175L6.5 6.712l4.113 4.113a.597.597 0 00.425.175.597.597 0 00.426-.175l.36-.36a.598.598 0 00.176-.426.598.598 0 00-.176-.425L7.712 5.5z" fill="#F34A15"/></g><defs><clipPath id="clip0"><path fill="#fff" d="M0 0h12v11H0z"/></clipPath></defs></svg>