<svg width="19" height="19" fill="none" xmlns="http://www.w3.org/2000/svg"><path d="M.282 6.867a1.312 1.312 0 011.033-.495h3.659l1.984-4.544a.557.557 0 111.02.446l-1.79 4.098h6.623l-1.79-4.098a.557.557 0 011.02-.446l1.985 4.544h3.66c.405 0 .781.18 1.032.495.246.309.337.706.25 1.09l-1.955 8.535a1.304 1.304 0 01-1.282 1.012H3.27a1.304 1.304 0 01-1.282-1.012L.033 7.957a1.282 1.282 0 01.25-1.09zM3.27 16.39h12.46a.2.2 0 00.197-.147l1.954-8.535a.17.17 0 00-.035-.148.202.202 0 00-.162-.076h-3.173l.146.334a.557.557 0 01-1.02.445l-.34-.779H5.702l-.34.78a.557.557 0 11-1.021-.446l.146-.334H1.315a.202.202 0 00-.162.076.17.17 0 00-.035.148l1.954 8.535a.2.2 0 00.197.147z" fill="#8B93A9"/><path d="M12.84 9.898c.307 0 .556.25.556.557v4.082a.557.557 0 01-1.113 0v-4.082c0-.307.25-.557.557-.557zm-3.34 0c.307 0 .557.25.557.557v4.082a.557.557 0 11-1.114 0v-4.082c0-.307.25-.557.557-.557zm-3.34 0c.308 0 .557.25.557.557v4.082a.557.557 0 01-1.113 0v-4.082c0-.307.249-.557.556-.557z" fill="#8B93A9"/></svg>