<svg width="62" height="62" fill="none" xmlns="http://www.w3.org/2000/svg"><path d="M6.66 62a6.66 6.66 0 100-13.32 6.66 6.66 0 000 13.32zm24.914-36.235l1.242.414v-6.562h-3.632v6.562l1.242-.414a1.816 1.816 0 011.148 0z" fill="#4B4649"/><path d="M36.45 28.7a1.816 1.816 0 01-2.392 1.722L31 29.403l-3.058 1.02a1.816 1.816 0 01-2.391-1.724v-9.082H20.1a1.816 1.816 0 00-1.816 1.817V43.23c0 1.004.813 1.817 1.817 1.817h21.796a1.816 1.816 0 001.817-1.816V21.433a1.816 1.816 0 00-1.817-1.817H36.45V28.7z" fill="#4B4649"/><path d="M48.68 30.516h-1.333v3.632h1.332c5.342 0 9.688 4.346 9.688 9.688 0 5.342-4.346 9.687-9.688 9.687H16.79c.106.59.164 1.197.164 1.817 0 .62-.058 1.226-.164 1.816h31.89c7.345 0 13.32-5.975 13.32-13.32 0-7.345-5.975-13.32-13.32-13.32zM3.633 20.828c0-5.342 4.346-9.687 9.687-9.687h20.56l-1.743 1.743a1.816 1.816 0 002.57 2.568l4.843-4.843c.71-.71.71-1.86 0-2.57l-4.844-4.843a1.816 1.816 0 10-2.569 2.569l1.743 1.743H13.32C5.975 7.508 0 13.483 0 20.828c0 7.345 5.975 13.32 13.32 13.32h1.332v-3.632H13.32c-5.341 0-9.687-4.346-9.687-9.688zm47.933 1.576a1.816 1.816 0 002.704 0 61.994 61.994 0 003.755-4.702C60.7 13.983 62 11.163 62 9.082 62 4.074 57.926 0 52.918 0c-5.008 0-9.082 4.074-9.082 9.082 0 2.082 1.3 4.901 3.974 8.62a61.965 61.965 0 003.756 4.702zm1.352-15.138a1.816 1.816 0 110 3.633 1.816 1.816 0 010-3.633z" fill="#4B4649"/></svg>