<svg width="62" height="62" fill="none" xmlns="http://www.w3.org/2000/svg"><g filter="url(#filter0_i)" fill="#4B4649"><path d="M14.531 56.55c-3.22 0-6.119-1.404-8.115-3.632a10.854 10.854 0 00-2.783 7.266c0 1.003.813 1.816 1.816 1.816h18.164a1.816 1.816 0 001.817-1.816c0-2.79-1.054-5.336-2.783-7.266a10.874 10.874 0 01-8.116 3.633z"/><path d="M14.531 52.918a7.266 7.266 0 100-14.531 7.266 7.266 0 000 14.531zm32.937 3.632c-3.22 0-6.119-1.404-8.116-3.632a10.854 10.854 0 00-2.783 7.266c0 1.003.814 1.816 1.817 1.816H56.55a1.816 1.816 0 001.816-1.816c0-2.79-1.053-5.336-2.782-7.266a10.874 10.874 0 01-8.116 3.633z"/><path d="M47.468 52.918a7.266 7.266 0 100-14.531 7.266 7.266 0 000 14.531zM60.184 0H29.67a1.816 1.816 0 00-1.816 1.816V22.02c0 1.003.813 1.816 1.816 1.816h13.412l3.101 3.101a1.816 1.816 0 002.569 0l3.1-3.101h8.33A1.816 1.816 0 0062 22.019V1.816A1.816 1.816 0 0060.184 0zM37.66 16.57a1.816 1.816 0 110-3.634 1.816 1.816 0 010 3.633zm7.266 0a1.816 1.816 0 110-3.634 1.816 1.816 0 010 3.633zm7.267 0a1.816 1.816 0 110-3.634 1.816 1.816 0 010 3.633z"/><path d="M37.779 29.304v-1.836H29.67a5.455 5.455 0 01-5.45-5.45V7.024H1.816A1.816 1.816 0 000 8.84v20.464c0 1.003.813 1.817 1.816 1.817h8.33l3.101 3.1a1.817 1.817 0 002.569 0l3.1-3.1h17.046a1.816 1.816 0 001.817-1.817zm-26.156-5.468a1.817 1.817 0 110-3.634 1.817 1.817 0 010 3.634zm7.266 0a1.817 1.817 0 110-3.634 1.817 1.817 0 010 3.634z"/></g><defs><filter id="filter0_i" x="0" y="0" width="62" height="66" filterUnits="userSpaceOnUse" color-interpolation-filters="sRGB"><feFlood flood-opacity="0" result="BackgroundImageFix"/><feBlend in="SourceGraphic" in2="BackgroundImageFix" result="shape"/><feColorMatrix in="SourceAlpha" values="0 0 0 0 0 0 0 0 0 0 0 0 0 0 0 0 0 0 127 0" result="hardAlpha"/><feOffset dy="4"/><feGaussianBlur stdDeviation="2"/><feComposite in2="hardAlpha" operator="arithmetic" k2="-1" k3="1"/><feColorMatrix values="0 0 0 0 0 0 0 0 0 0 0 0 0 0 0 0 0 0 0.25 0"/><feBlend in2="shape" result="effect1_innerShadow"/></filter></defs></svg>