<svg width="62" height="62" fill="none" xmlns="http://www.w3.org/2000/svg"><g clip-path="url(#clip0)" filter="url(#filter0_i)" fill="#4B4649"><path fill-rule="evenodd" clip-rule="evenodd" d="M29.895 0h5.536v12.178h-5.535V0zm7.75 0h5.537v12.178h-5.537V0zm23.84 37.336a2.24 2.24 0 00-3.147-.28l-9.632 8.062v.047a4.429 4.429 0 01-4.429 4.657H30.99a1.107 1.107 0 110-2.214h13.29a2.214 2.214 0 002.183-2.6 1 1 0 01-.041-.171 2.401 2.401 0 00-2.325-1.661H31.706a3.218 3.218 0 01-2.048-.708 6.532 6.532 0 00-4.207-1.505 16.502 16.502 0 00-12.51 5.21c-.66.659-1.393 1.411-2.171 2.223L.336 59.844a1.286 1.286 0 00.956 2.154H15.09c.648 0 1.262-.283 1.683-.775l3.185-3.712a5.527 5.527 0 014.386-2.156h21.045a3.179 3.179 0 002.157-.955l13.822-14.06a2.26 2.26 0 00.117-3.004zm-16.09-9.658h7.751v4.428h-7.75v-4.428z"/><path d="M31.067 40.764c.184.139.41.21.64.201h12.392a4.664 4.664 0 013.812 1.928l9.006-7.535a4.396 4.396 0 011.764-.886V1.107A1.108 1.108 0 0057.574 0H45.396v12.178a2.214 2.214 0 01-2.215 2.214H29.896a2.214 2.214 0 01-2.214-2.214V0H15.504c-.612 0-1.107.496-1.107 1.107v40.949a18.378 18.378 0 0111.054-3.307c2.05 0 4.034.713 5.616 2.015zm12.114-13.086c0-1.223.992-2.214 2.215-2.214h7.75c1.222 0 2.214.991 2.214 2.214v4.428a2.214 2.214 0 01-2.215 2.215h-7.75a2.214 2.214 0 01-2.214-2.215v-4.428zm-16.282.324l2.214-2.214a1.107 1.107 0 011.566 0l2.214 2.214a1.107 1.107 0 11-1.566 1.566l-.324-.325v5.077a1.107 1.107 0 01-2.214 0v-5.077l-.325.325a1.107 1.107 0 01-1.565-1.566zm-2.863 1.566a1.107 1.107 0 01-1.565 0l-.325-.325v5.077a1.107 1.107 0 01-2.214 0v-5.077l-.324.325a1.107 1.107 0 01-1.566-1.566l2.214-2.214a1.107 1.107 0 011.566 0l2.214 2.214a1.107 1.107 0 010 1.566z"/></g><defs><clipPath id="clip0"><path fill="#fff" d="M0 0h62v62H0z"/></clipPath><filter id="filter0_i" x="0" y="0" width="62" height="66" filterUnits="userSpaceOnUse" color-interpolation-filters="sRGB"><feFlood flood-opacity="0" result="BackgroundImageFix"/><feBlend in="SourceGraphic" in2="BackgroundImageFix" result="shape"/><feColorMatrix in="SourceAlpha" values="0 0 0 0 0 0 0 0 0 0 0 0 0 0 0 0 0 0 127 0" result="hardAlpha"/><feOffset dy="4"/><feGaussianBlur stdDeviation="2"/><feComposite in2="hardAlpha" operator="arithmetic" k2="-1" k3="1"/><feColorMatrix values="0 0 0 0 0 0 0 0 0 0 0 0 0 0 0 0 0 0 0.25 0"/><feBlend in2="shape" result="effect1_innerShadow"/></filter></defs></svg>