<svg width="62" height="62" fill="none" xmlns="http://www.w3.org/2000/svg"><g filter="url(#filter0_i)" fill="#4B4649"><path d="M47.174 43.875l-.989.476-2.878 3.609a2.89 2.89 0 01-2.272 1.094H36.42l-2.608 1.256L41.942 61a1.454 1.454 0 002.46-.239l2.547-5.18 5.672-1.07a1.452 1.452 0 00.887-2.308l-6.334-8.328zm-26.209 5.179a2.89 2.89 0 01-2.273-1.094l-2.877-3.609-.99-.476-6.333 8.328a1.454 1.454 0 00.887 2.307l5.672 1.071 2.546 5.18a1.453 1.453 0 002.461.238l8.13-10.69-2.608-1.255h-4.615z"/><path d="M53.865 25.309l1.1-4.824a1.452 1.452 0 00-.28-1.23l-3.084-3.867-1.101-4.823a1.452 1.452 0 00-.786-.986l-4.458-2.147-3.084-3.868a1.453 1.453 0 00-1.136-.547h-4.948L31.631.87a1.454 1.454 0 00-1.261 0l-4.458 2.147h-4.947a1.454 1.454 0 00-1.136.547l-3.085 3.868-4.457 2.147a1.453 1.453 0 00-.786.985L10.4 15.388l-3.085 3.868a1.454 1.454 0 00-.28 1.23l1.1 4.823-1.1 4.823a1.453 1.453 0 00.28 1.23l3.085 3.867 1.1 4.824a1.452 1.452 0 00.787.985l4.457 2.147 3.085 3.868a1.453 1.453 0 001.136.547h4.947l4.458 2.147a1.453 1.453 0 001.26 0l4.458-2.147h4.947a1.452 1.452 0 001.137-.547l3.084-3.868 4.458-2.146a1.453 1.453 0 00.786-.986l1.1-4.823 3.085-3.868a1.453 1.453 0 00.28-1.23l-1.1-4.823zM31 43.109c-9.748 0-17.68-7.93-17.68-17.68C13.32 15.682 21.253 7.75 31 7.75s17.68 7.932 17.68 17.68S40.749 43.11 31 43.11z"/><path d="M31 9.203c-8.947 0-16.227 7.28-16.227 16.227S22.053 41.656 31 41.656s16.227-7.279 16.227-16.226c0-8.948-7.28-16.227-16.227-16.227zm0 7.305a1.454 1.454 0 110 2.908 1.454 1.454 0 010-2.908zM20.828 23.25a1.453 1.453 0 110-2.906 1.453 1.453 0 010 2.906zm19.21 1.63l-1.382 8.296a1.453 1.453 0 01-1.434 1.215H24.778a1.453 1.453 0 01-1.433-1.215l-1.383-8.296a1.453 1.453 0 012.228-1.455l2.979 1.945 2.59-4.25a1.453 1.453 0 012.482 0l2.59 4.25 2.979-1.945a1.453 1.453 0 012.228 1.455zm1.134-1.63a1.453 1.453 0 110-2.905 1.453 1.453 0 010 2.905z"/></g><defs><filter id="filter0_i" x="0" y="0" width="62" height="66" filterUnits="userSpaceOnUse" color-interpolation-filters="sRGB"><feFlood flood-opacity="0" result="BackgroundImageFix"/><feBlend in="SourceGraphic" in2="BackgroundImageFix" result="shape"/><feColorMatrix in="SourceAlpha" values="0 0 0 0 0 0 0 0 0 0 0 0 0 0 0 0 0 0 127 0" result="hardAlpha"/><feOffset dy="4"/><feGaussianBlur stdDeviation="2"/><feComposite in2="hardAlpha" operator="arithmetic" k2="-1" k3="1"/><feColorMatrix values="0 0 0 0 0 0 0 0 0 0 0 0 0 0 0 0 0 0 0.25 0"/><feBlend in2="shape" result="effect1_innerShadow"/></filter></defs></svg>