<svg width="15" height="15" fill="none" xmlns="http://www.w3.org/2000/svg"><g clip-path="url(#clip0)"><path d="M14.345.976c-.677-.364-1.432.339-1.875.755-1.015.99-1.874 2.135-2.837 3.177-1.068 1.145-2.057 2.29-3.15 3.41-.625.625-1.302 1.302-1.718 2.083-.938-.911-1.745-1.9-2.786-2.708-.755-.573-2.005-.989-1.979.39.052 1.797 1.64 3.724 2.812 4.947.495.52 1.146 1.068 1.9 1.094.912.052 1.849-1.042 2.396-1.64.963-1.042 1.744-2.213 2.629-3.28 1.146-1.407 2.317-2.786 3.436-4.218.703-.885 2.916-3.072 1.172-4.01zM1.145 7.98c-.025 0-.051 0-.103.026A1.267 1.267 0 01.755 7.9c.078-.052.209-.026.39.079z" fill="#33C138"/></g><defs><clipPath id="clip0"><path fill="#fff" d="M0 0h15v15H0z"/></clipPath></defs></svg>