<svg width="28" height="28" fill="none" xmlns="http://www.w3.org/2000/svg"><path d="M17.084 13.999l10.469 10.47c.288.287.447.672.447 1.082 0 .41-.159.795-.447 1.083l-.918.917a1.52 1.52 0 01-1.083.447 1.52 1.52 0 01-1.083-.447L14 17.082 3.532 27.551a1.518 1.518 0 01-1.083.447c-.41 0-.794-.158-1.082-.447l-.918-.917a1.533 1.533 0 010-2.166L10.917 14 .448 3.53a1.522 1.522 0 01-.447-1.083c0-.41.159-.794.447-1.083l.918-.917A1.518 1.518 0 012.448 0c.41 0 .795.158 1.083.447l10.47 10.469L24.468.447A1.52 1.52 0 0125.552 0c.41 0 .795.158 1.083.447l.917.917c.288.288.447.673.447 1.083 0 .41-.159.794-.447 1.083L17.084 13.999z"/></svg>