<svg width="50" height="50" fill="none" xmlns="http://www.w3.org/2000/svg"><g clip-path="url(#clip0)"><path d="M49.711 10.446a1.603 1.603 0 00-1.247-.685L17.45 8.424a1.604 1.604 0 10-.138 3.205l28.916 1.247-5.686 17.74h-25.3L10.67 5.726c-.1-.545-.475-1-.991-1.203l-7.486-2.94A1.605 1.605 0 001.018 4.57l6.656 2.614 4.652 25.325c.14.762.804 1.315 1.578 1.315h.772l-1.762 4.894a1.335 1.335 0 001.258 1.79h1.235a4.784 4.784 0 00-1.236 3.208 4.818 4.818 0 004.813 4.813 4.818 4.818 0 004.813-4.813c0-1.234-.47-2.356-1.236-3.209h10.493a4.783 4.783 0 00-1.236 3.21 4.818 4.818 0 004.813 4.812 4.818 4.818 0 004.813-4.813c0-1.234-.47-2.356-1.236-3.209h1.503a1.337 1.337 0 100-2.673H16.074l1.443-4.01h24.194c.698 0 1.315-.451 1.528-1.115l6.684-20.856a1.6 1.6 0 00-.212-1.407zm-30.727 35.41c-1.18 0-2.139-.96-2.139-2.14 0-1.18.96-2.138 2.14-2.138a2.14 2.14 0 012.138 2.139 2.14 2.14 0 01-2.139 2.139zm17.647 0c-1.18 0-2.139-.96-2.139-2.14 0-1.18.96-2.138 2.139-2.138a2.14 2.14 0 012.139 2.139c0 1.18-.96 2.139-2.139 2.139z" fill="#DCDCDC"/></g><defs><clipPath id="clip0"><path fill="#fff" d="M0 0h50v50H0z"/></clipPath></defs></svg>