<svg width="19" height="19" fill="none" xmlns="http://www.w3.org/2000/svg"><g clip-path="url(#clip0)"><path d="M9.5 3.837c3.63 0 6.922 1.986 9.351 5.212a.752.752 0 010 .898c-2.429 3.23-5.72 5.216-9.351 5.216-3.63 0-6.922-1.986-9.351-5.212a.752.752 0 010-.898c2.429-3.23 5.72-5.216 9.351-5.216zm-.26 9.65a3.999 3.999 0 004.248-4.247A4.005 4.005 0 009.76 5.512 3.999 3.999 0 005.512 9.76a4.018 4.018 0 003.728 3.728zm.12-1.841a2.148 2.148 0 002.285-2.286 2.16 2.16 0 00-2.009-2.01 2.148 2.148 0 00-2.285 2.286 2.16 2.16 0 002.01 2.01z" fill="#909090"/></g><defs><clipPath id="clip0"><path fill="#fff" transform="matrix(-1 0 0 1 19 0)" d="M0 0h19v19H0z"/></clipPath></defs></svg>