<svg width="18" height="18" fill="none" xmlns="http://www.w3.org/2000/svg"><path d="M9 16.999c-.256 0-.503-.093-.696-.262a209.5 209.5 0 00-2.047-1.76l-.003-.003c-1.813-1.545-3.38-2.88-4.469-4.195C.567 9.31 0 7.916 0 6.394c0-1.48.507-2.844 1.428-3.842a4.84 4.84 0 013.6-1.568c1.04 0 1.991.329 2.829.977A5.81 5.81 0 019 3.155c.338-.467.72-.867 1.143-1.194a4.528 4.528 0 012.829-.977 4.84 4.84 0 013.6 1.568C17.492 3.55 18 4.915 18 6.394c0 1.522-.567 2.916-1.785 4.385-1.09 1.315-2.656 2.65-4.469 4.195a199.03 199.03 0 00-2.05 1.763c-.193.169-.44.262-.696.262zM5.028 2.039a3.797 3.797 0 00-2.825 1.227c-.74.804-1.149 1.914-1.149 3.128 0 1.28.476 2.425 1.543 3.713 1.031 1.244 2.565 2.551 4.341 4.065l.003.002c.621.53 1.325 1.13 2.057 1.77.737-.642 1.442-1.243 2.064-1.773 1.776-1.513 3.31-2.82 4.341-4.064 1.067-1.288 1.543-2.433 1.543-3.713 0-1.214-.408-2.324-1.15-3.128a3.797 3.797 0 00-2.824-1.227c-.8 0-1.535.254-2.184.756-.578.447-.98 1.012-1.216 1.408A.66.66 0 019 4.527a.66.66 0 01-.572-.324c-.236-.396-.638-.961-1.216-1.408a3.497 3.497 0 00-2.184-.756z" fill="#8B93A9"/></svg>