<svg width="18" height="18" fill="none" xmlns="http://www.w3.org/2000/svg"><g clip-path="url(#clip0)"><path d="M17.473 1.09H4.78a.527.527 0 00-.527.527v6.89a3.164 3.164 0 00-1.833 1.02h-.276V9a.527.527 0 00-.528-.527H.527a.527.527 0 000 1.054h.563v6.329H.527a.527.527 0 100 1.054h1.09a.527.527 0 00.528-.527v-.527h.445c3.363 1.064 3.236 1.054 3.387 1.054h7.242a1.583 1.583 0 001.491-2.11h2.763a.527.527 0 00.527-.527V1.617a.527.527 0 00-.527-.527zm-7.418 1.055h2.11V4.78h-2.11V2.145zm3.691 13.183c0 .29-.237.527-.527.527h-7.16c-3.363-1.064-3.236-1.054-3.387-1.054h-.527v-4.219h.527c.167 0 .325-.08.424-.214a2.095 2.095 0 013.37 0 .53.53 0 00.425.214h2.636a.528.528 0 010 1.055H6.363a.527.527 0 00-.527.527 2.64 2.64 0 002.637 2.637h4.746c.29 0 .527.236.527.527zm3.2-1.582H8.472c-.688 0-1.274-.44-1.492-1.055h2.546c.873 0 1.582-.71 1.582-1.582 0-.872-.71-1.582-1.582-1.582H7.142a3.166 3.166 0 00-1.833-1.02V2.145H9v3.164c0 .29.236.527.527.527h3.164a.527.527 0 00.528-.527V2.145h3.726v11.601z" fill="#4B4649"/></g><defs><clipPath id="clip0"><path fill="#fff" d="M0 0h18v18H0z"/></clipPath></defs></svg>