<svg width="16" height="16" fill="none" xmlns="http://www.w3.org/2000/svg"><g clip-path="url(#clip0)" fill-rule="evenodd" clip-rule="evenodd" fill="#ED1C24"><path d="M12.826 4.737c.049-.015.112.015.176.1l2.879 2.843c.168.17.168.427 0 .553l-2.879 2.886c-.064.085-.127.105-.176.08-.048-.026-.079-.1-.079-.208V4.922c0-.105.03-.17.08-.185zM7.901 0h.204l.196.082 2.963 2.971c.128.17.084.299-.127.299H9.909a.38.38 0 00-.38.383V5.94c0 .213-.17.383-.425.383H6.946a.381.381 0 01-.382-.383V3.735a.38.38 0 00-.382-.383H4.87c-.212 0-.255-.129-.128-.299L7.708.083 7.9 0zM3.26 4.673c.053.025.086.1.086.208v6.194c0 .108-.033.173-.086.193-.051.02-.125 0-.212-.064L.126 8.233c-.168-.126-.168-.383 0-.553l2.922-2.928c.087-.084.16-.105.212-.08zm3.686 4.876h2.158c.255 0 .425.17.425.383v2.333c0 .255.169.425.38.425h1.144c.211 0 .295.125.127.254L8.302 15.87a.424.424 0 01-.299.129.419.419 0 01-.295-.129l-2.879-2.927c-.17-.129-.087-.255.125-.255h1.228c.214 0 .382-.17.382-.424V9.932a.38.38 0 01.382-.383z"/></g><defs><clipPath id="clip0"><path fill="#fff" d="M0 0h16v16H0z"/></clipPath></defs></svg>