<svg width="21" height="21" fill="none" xmlns="http://www.w3.org/2000/svg"><g clip-path="url(#clip0)" fill="#4B4649"><path d="M17.055 17.066c-1.01-.72-2.786-1.064-4.026-1.21 3.869-5.972 3.65-5.63 3.673-5.676a6.992 6.992 0 00-.333-6.94 6.896 6.896 0 00-6.04-3.238c-5.12.115-8.35 5.593-6.031 10.177.023.046-.207-.312 3.673 5.676-1.665.197-4.814.816-4.814 2.502 0 2.661 8.158 3.267 12.277 2.024.682-.206 1.228-.453 1.621-.733 1.05-.75 1.05-1.833 0-2.582zM5.382 9.596c-1.89-3.785.787-8.27 4.974-8.364 4.369-.098 7.19 4.5 5.262 8.363l-3.98 6.145-.782 1.205-.033.052a.381.381 0 01-.323.176.381.381 0 01-.324-.176l-.033-.052-4.761-7.35zm9.697 9.607c-2.513.759-6.645.759-9.158 0-1.267-.382-1.533-.783-1.533-.846 0-.239 1.225-1.08 4.334-1.341l.421.65a1.616 1.616 0 002.713 0l.421-.65c1.053.088 2.014.257 2.802.494 1.266.383 1.532.783 1.532.847 0 .063-.266.464-1.533.846z"/><path d="M13.691 10.065l.431-3.95a.945.945 0 00-.94-1.035h-.768V3.675c0-.658-.535-1.193-1.194-1.193H9.78c-.659 0-1.194.535-1.194 1.193V5.08h-.769c-.59 0-1.01.538-.938 1.044l.436 3.942c.057.517.491.906 1.011.906h4.355c.52 0 .955-.39 1.011-.907zM9.816 3.712h1.367V5.08H9.816V3.712zm-1.3 6.03l-.38-3.431h4.727l-.374 3.43H8.515z"/></g><defs><clipPath id="clip0"><path fill="#fff" d="M0 0h21v21H0z"/></clipPath></defs></svg>