<svg width="12" height="11" viewBox="0 0 12 11" fill="none" xmlns="http://www.w3.org/2000/svg">
<g clip-path="url(#clip0)">
<path d="M7.71152 5.50062L11.8243 1.38769C11.9374 1.27447 11.9998 1.12342 12 0.962359C12 0.801204 11.9376 0.649977 11.8243 0.536936L11.4639 0.176619C11.3506 0.063131 11.1995 0.000976562 11.0383 0.000976562C10.8773 0.000976562 10.7262 0.063131 10.6129 0.176619L6.50018 4.28928L2.38725 0.176619C2.27412 0.063131 2.12298 0.000976562 1.96183 0.000976562C1.80085 0.000976562 1.64972 0.063131 1.53659 0.176619L1.176 0.536936C0.941333 0.771603 0.941333 1.15329 1.176 1.38769L5.28884 5.50062L1.176 9.61337C1.06278 9.72677 1.00045 9.87782 1.00045 10.0389C1.00045 10.1999 1.06278 10.351 1.176 10.4643L1.5365 10.8246C1.64963 10.938 1.80085 11.0003 1.96174 11.0003C2.12289 11.0003 2.27403 10.938 2.38716 10.8246L6.50009 6.71187L10.6128 10.8246C10.7261 10.938 10.8772 11.0003 11.0382 11.0003H11.0383C11.1994 11.0003 11.3505 10.938 11.4638 10.8246L11.8242 10.4643C11.9373 10.3511 11.9997 10.1999 11.9997 10.0389C11.9997 9.87782 11.9373 9.72677 11.8242 9.61346L7.71152 5.50062Z" fill="#F34A15"/>
</g>
<defs>
<clipPath id="clip0">
<rect width="12" height="11" fill="white"/>
</clipPath>
</defs>
</svg>
