<svg width="16" height="16" fill="none" xmlns="http://www.w3.org/2000/svg"><g clip-path="url(#clip0)" fill="#4B4649"><path d="M14.548.01C14.53.009 14.517 0 14.5 0H7.333c-1.103 0-2 .897-2 2v.667a.667.667 0 001.333 0V2c0-.367.3-.667.667-.667h3.106l-.203.068a1.34 1.34 0 00-.903 1.266v10h-2A.668.668 0 016.666 12v-1.333a.667.667 0 00-1.333 0V12c0 1.103.897 2 2 2h2v.667c0 .735.598 1.333 1.333 1.333.143 0 .278-.02.425-.066l4.005-1.335A1.34 1.34 0 0016 13.333v-12c0-.777-.67-1.386-1.452-1.323z"/><path d="M7.138 6.196L4.47 3.53a.666.666 0 00-1.138.472v2H.667a.667.667 0 000 1.333h2.666v2a.668.668 0 001.138.471L7.138 7.14a.666.666 0 000-.943z"/></g><defs><clipPath id="clip0"><path fill="#fff" d="M0 0h16v16H0z"/></clipPath></defs></svg>