<svg width="22" height="22" viewBox="0 0 22 22" fill="none" xmlns="http://www.w3.org/2000/svg">
<g clip-path="url(#clip0)">
<path d="M10.9635 20.1362H2.74085C2.23652 20.1362 1.82725 19.7269 1.82725 19.2226V2.77742C1.82725 2.27309 2.23657 1.86381 2.74085 1.86381H10.9635C11.4687 1.86381 11.8771 1.45544 11.8771 0.950211C11.8771 0.444985 11.4687 0.0365238 10.9635 0.0365238H2.74085C1.22972 0.0365238 0 1.26629 0 2.77742V19.2226C0 20.7337 1.22972 21.9634 2.74085 21.9634H10.9635C11.4687 21.9634 11.8771 21.5551 11.8771 21.0498C11.8771 20.5446 11.4687 20.1362 10.9635 20.1362Z" fill="#4B4649"/>
<path d="M21.7274 10.3495L16.1725 4.86778C15.8144 4.51328 15.2352 4.51788 14.8807 4.87693C14.5262 5.23597 14.5298 5.81429 14.8898 6.16878L18.8595 10.0864H8.22219C7.71697 10.0864 7.30859 10.4947 7.30859 11C7.30859 11.5052 7.71697 11.9136 8.22219 11.9136H18.8595L14.8898 15.8312C14.5299 16.1857 14.5271 16.764 14.8807 17.1231C15.0597 17.304 15.2955 17.3953 15.5312 17.3953C15.7633 17.3953 15.9953 17.3076 16.1725 17.1322L21.7274 11.6504C21.901 11.4787 21.9996 11.2448 21.9996 10.9999C21.9996 10.7552 21.9019 10.5222 21.7274 10.3495Z" fill="#4B4649"/>
</g>
<defs>
<clipPath id="clip0">
<rect width="22" height="22" fill="white"/>
</clipPath>
</defs>
</svg>
