<svg width="246" height="78" fill="none" xmlns="http://www.w3.org/2000/svg"><path d="M35.5 0h210L210 78H0L35.5 0z" fill="#fff"/><path d="M170.712 25.876l.228-1.068h-5.448l-.228 1.068h2.04L166.212 31h1.368l1.092-5.124h2.04zm1.03 5.124l.876-4.116h.024l.612 4.116h1.356l2.364-4.116h.024L176.122 31h1.32l1.32-6.192h-1.788l-2.796 4.98h-.024l-.732-4.98h-1.68L170.422 31h1.32zm-84.657 2.282L83.313 51h-4.556l1.57-7.391h-7.771L70.986 51H66.43l3.772-17.718h4.556l-1.443 6.783h7.77l1.444-6.783h4.556zM84.233 51l9.948-15.845c.472-.743.987-1.274 1.544-1.595.557-.32 1.35-.48 2.38-.48.877 0 1.56.143 2.049.43.49.286.819.835.988 1.645L104.407 51h-4.53l-.735-4.05h-7.467L89.22 51h-4.987zm12.732-13.112l-3.442 5.62h5.24l-1.064-5.62c-.067-.37-.143-.556-.228-.556-.135 0-.303.185-.506.556zm13.815-4.606l1.923 13.162c.034.253.127.38.279.38.118 0 .261-.127.43-.38l7.644-13.162h5.012l-9.618 15.541c-.456.743-1.004 1.325-1.646 1.747-.624.422-1.459.633-2.506.633-1.046 0-1.797-.211-2.252-.633-.456-.422-.76-1.004-.912-1.747l-2.961-15.541h4.607zm24.858-.203c2.835 0 4.886.473 6.151 1.418 1.283.928 1.924 2.472 1.924 4.632a16.94 16.94 0 01-.354 3.518c-.321 1.502-.692 2.75-1.114 3.746-.422.979-.903 1.797-1.443 2.456-.54.64-1.232 1.13-2.076 1.468-.843.337-1.754.565-2.733.683-.979.135-2.211.203-3.696.203-2.835 0-4.893-.465-6.176-1.393-1.265-.945-1.898-2.497-1.898-4.657 0-1.232.118-2.405.354-3.518.321-1.485.684-2.726 1.089-3.721.421-.996.902-1.814 1.442-2.456a5.259 5.259 0 012.101-1.493 10.82 10.82 0 012.734-.683c.979-.135 2.21-.203 3.695-.203zm-6.429 9.062c-.219.995-.329 1.856-.329 2.582 0 1.08.295 1.839.886 2.278.608.439 1.612.658 3.012.658 1.84 0 3.181-.397 4.025-1.19.844-.793 1.485-2.236 1.923-4.328.22-.979.33-1.831.33-2.557 0-1.08-.304-1.839-.912-2.278-.607-.455-1.611-.683-3.012-.683-1.839 0-3.181.396-4.024 1.19-.827.776-1.46 2.218-1.899 4.328zM158.456 51h-7.062c-4.371 0-6.556-2.042-6.556-6.126 0-1.08.118-2.16.354-3.24.304-1.468.667-2.69 1.089-3.67a8.5 8.5 0 011.746-2.556c.726-.743 1.629-1.283 2.709-1.62 1.08-.338 2.388-.506 3.923-.506h7.315l-.759 3.543h-5.062c-2.042 0-3.493.355-4.354 1.063-.861.71-1.519 2.127-1.974 4.253-.22 1.063-.329 1.881-.329 2.455 0 1.097.329 1.848.987 2.253.675.405 1.814.607 3.417.607h5.315L158.456 51z" fill="#4B4649"/></svg>