<svg width="25" height="16" viewBox="0 0 25 16" fill="none" xmlns="http://www.w3.org/2000/svg">
<path d="M15.8896 1.6543H9.13672V13.8164H15.8896V1.6543Z" fill="#FF5F00"/>
<path d="M9.5652 7.73562C9.5652 5.26452 10.7228 3.07276 12.5022 1.65457C11.1945 0.62315 9.54376 0 7.74299 0C3.47687 0 0.0253906 3.45954 0.0253906 7.73562C0.0253906 12.0117 3.47687 15.4712 7.74299 15.4712C9.54376 15.4712 11.1945 14.8481 12.5022 13.8167C10.7228 12.42 9.5652 10.2067 9.5652 7.73562Z" fill="#EB001B"/>
<path d="M25.0002 7.73562C25.0002 12.0117 21.5487 15.4712 17.2826 15.4712C15.4818 15.4712 13.8311 14.8481 12.5234 13.8167C14.3242 12.3985 15.4604 10.2067 15.4604 7.73562C15.4604 5.26452 14.3028 3.07276 12.5234 1.65457C13.8311 0.62315 15.4818 0 17.2826 0C21.5487 0 25.0002 3.48103 25.0002 7.73562Z" fill="#F79E1B"/>
</svg>
