<svg width="25" height="16" fill="none" xmlns="http://www.w3.org/2000/svg"><path d="M15.89 1.654H9.137v12.162h6.753V1.654z" fill="#FF5F00"/><path d="M9.565 7.736a7.762 7.762 0 012.937-6.081A7.659 7.659 0 007.743 0C3.477 0 .025 3.46.025 7.736s3.452 7.735 7.718 7.735a7.66 7.66 0 004.76-1.654 7.73 7.73 0 01-2.938-6.081z" fill="#EB001B"/><path d="M25 7.736c0 4.276-3.451 7.735-7.717 7.735a7.663 7.663 0 01-4.76-1.654 7.698 7.698 0 002.937-6.081 7.762 7.762 0 00-2.937-6.081A7.659 7.659 0 0117.283 0C21.549 0 25 3.481 25 7.736z" fill="#F79E1B"/></svg>