<svg width="170" height="170" fill="none" xmlns="http://www.w3.org/2000/svg"><g clip-path="url(#clip0)" fill="#DCDCDC"><path d="M85 141.667c-23.439 0-42.5-19.061-42.5-42.5s19.061-42.5 42.5-42.5 42.5 19.061 42.5 42.5-19.061 42.5-42.5 42.5zm0-74.375c-17.574 0-31.875 14.301-31.875 31.875 0 17.574 14.301 31.875 31.875 31.875 17.574 0 31.875-14.301 31.875-31.875 0-17.574-14.301-31.875-31.875-31.875z"/><path d="M76.146 113.334c-1.36 0-2.72-.517-3.755-1.559a5.314 5.314 0 010-7.515L90.1 86.552a5.314 5.314 0 117.515 7.515l-17.708 17.708a5.296 5.296 0 01-3.761 1.559z"/><path d="M93.854 113.334c-1.36 0-2.72-.517-3.754-1.559L72.39 94.067a5.314 5.314 0 117.516-7.515l17.708 17.708a5.314 5.314 0 010 7.515 5.296 5.296 0 01-3.761 1.559z"/><path d="M150.521 162.916H19.479C8.734 162.916 0 154.183 0 143.437V26.562C0 15.817 8.734 7.083 19.48 7.083h131.04c10.745 0 19.479 8.734 19.479 19.48v116.874c0 10.746-8.734 19.479-19.479 19.479zM19.479 17.708c-4.88 0-8.854 3.974-8.854 8.854v116.875c0 4.881 3.974 8.854 8.854 8.854h131.042c4.88 0 8.854-3.973 8.854-8.854V26.562c0-4.88-3.974-8.854-8.854-8.854H19.479z"/><path d="M164.688 42.5H5.313A5.314 5.314 0 010 37.187a5.314 5.314 0 015.313-5.312h159.375A5.314 5.314 0 01170 37.188a5.314 5.314 0 01-5.312 5.312z"/></g><defs><clipPath id="clip0"><path fill="#fff" d="M0 0h170v170H0z"/></clipPath></defs></svg>