<svg width="17" height="17" fill="none" xmlns="http://www.w3.org/2000/svg"><path d="M12.924 11.246c-.555-.548-1.248-.548-1.8 0-.421.418-.842.835-1.256 1.26-.113.117-.209.141-.347.064-.272-.149-.562-.27-.824-.432-1.22-.768-2.243-1.755-3.148-2.865-.45-.552-.85-1.143-1.129-1.808-.057-.135-.046-.223.064-.333.42-.406.831-.824 1.245-1.241.577-.58.577-1.26-.004-1.843-.329-.333-.658-.658-.987-.99-.34-.34-.675-.684-1.018-1.02-.556-.54-1.25-.54-1.801.004-.424.417-.831.845-1.263 1.256-.4.378-.601.842-.644 1.383-.067.88.149 1.712.453 2.522.623 1.677 1.57 3.166 2.72 4.532a16.835 16.835 0 005.576 4.361c.976.474 1.988.839 3.088.899.757.043 1.415-.149 1.942-.74.36-.403.768-.77 1.15-1.156.566-.573.57-1.267.007-1.833a542.757 542.757 0 00-2.024-2.02zm-.675-2.819l1.305-.223a5.835 5.835 0 00-1.63-3.148 5.803 5.803 0 00-3.326-1.66L8.414 4.71a4.5 4.5 0 012.575 1.284 4.502 4.502 0 011.26 2.434zm2.041-5.675A9.625 9.625 0 008.77 0l-.183 1.312a8.346 8.346 0 014.768 2.378 8.34 8.34 0 012.339 4.51l1.305-.223a9.696 9.696 0 00-2.71-5.225z"/></svg>