<svg width="37" height="13" fill="none" xmlns="http://www.w3.org/2000/svg"><path d="M15.124.46l-1.857 11.557h2.968L18.09.46h-2.967zm8.952 4.708c-1.037-.512-1.673-.858-1.673-1.382.013-.476.538-.964 1.71-.964a5.165 5.165 0 012.211.428l.27.12.403-2.418a7.492 7.492 0 00-2.664-.476c-2.93 0-4.995 1.524-5.008 3.704-.024 1.608 1.478 2.5 2.602 3.036 1.148.55 1.539.905 1.539 1.393-.013.75-.928 1.095-1.783 1.095-1.184 0-1.82-.178-2.785-.595l-.391-.178-.415 2.512c.697.31 1.98.583 3.31.597 3.115 0 5.142-1.501 5.168-3.824.01-1.274-.782-2.25-2.494-3.048zM34.606.497H32.31c-.708 0-1.245.203-1.552.93l-4.409 10.59h3.116l.857-2.293h3.485l.445 2.302H37L34.606.496zm-3.42 6.913c.06.006 1.196-3.743 1.196-3.743l.904 3.743h-2.1zM10.786.46L7.88 8.313l-.317-1.548c-.538-1.787-2.224-3.728-4.105-4.692l2.663 9.933h3.14L13.927.462h-3.14V.461z" fill="#2394BC"/><path d="M6.584 1.952C6.357 1.07 5.634.477 4.653.464H.047L0 .678c3.593.885 6.608 3.61 7.586 6.174l-1.002-4.9z" fill="#EFC75E"/></svg>