<svg width="189" height="177" viewBox="0 0 189 177" fill="none" xmlns="http://www.w3.org/2000/svg">
<g clip-path="url(#clip0)">
<path d="M179.308 5.08789H120.381C115.031 5.08789 110.689 9.42988 110.689 14.7798V73.7069C110.689 79.0571 115.031 83.3988 120.381 83.3988H148.585C148.217 98.8286 144.63 111.176 137.846 120.461C132.496 127.788 124.394 133.855 113.558 138.643C108.576 140.833 106.425 146.726 108.751 151.65L115.729 166.382C117.978 171.111 123.541 173.185 128.348 171.111C141.18 165.567 152.016 158.55 160.855 150.021C171.632 139.612 179.018 127.866 183.011 114.762C187.004 101.658 189 83.7865 189 61.1074V14.7798C189 9.43008 184.658 5.08789 179.308 5.08789Z" fill="#F9F9F9"/>
<path d="M20.5541 171.072C33.2312 165.548 44.0086 158.531 52.9058 150.021C63.7802 139.612 71.2043 127.904 75.1973 114.898C79.1904 101.891 81.1868 83.961 81.1868 61.1074V14.7798C81.1868 9.42988 76.845 5.08789 71.4948 5.08789H12.5678C7.21781 5.08789 2.87581 9.42988 2.87581 14.7798V73.7069C2.87581 79.057 7.21781 83.3988 12.5678 83.3988H40.7713C40.403 98.8286 36.817 111.176 30.0327 120.461C24.6827 127.788 16.5802 133.855 5.74463 138.643C0.76297 140.833 -1.38864 146.726 0.937425 151.65L7.89625 166.343C10.145 171.072 15.7469 173.166 20.5541 171.072Z" fill="#F9F9F9"/>
</g>
<defs>
<clipPath id="clip0">
<rect width="189" height="177" fill="white"/>
</clipPath>
</defs>
</svg>
