<svg width="12" height="11" viewBox="0 0 12 11" fill="none" xmlns="http://www.w3.org/2000/svg">
<g clip-path="url(#clip0)">
<path d="M7.71152 5.50068L11.8243 1.38775C11.9374 1.27453 11.9998 1.12348 12 0.962416C12 0.801261 11.9376 0.650034 11.8243 0.536993L11.4639 0.176676C11.3506 0.0631883 11.1995 0.00103378 11.0383 0.00103378C10.8773 0.00103378 10.7262 0.0631883 10.6129 0.176676L6.50018 4.28933L2.38725 0.176676C2.27412 0.0631883 2.12298 0.00103378 1.96183 0.00103378C1.80085 0.00103378 1.64972 0.0631883 1.53659 0.176676L1.176 0.536993C0.941333 0.77166 0.941333 1.15335 1.176 1.38775L5.28884 5.50068L1.176 9.61342C1.06278 9.72682 1.00045 9.87787 1.00045 10.0389C1.00045 10.2 1.06278 10.3511 1.176 10.4644L1.5365 10.8247C1.64963 10.9381 1.80085 11.0003 1.96174 11.0003C2.12289 11.0003 2.27403 10.9381 2.38716 10.8247L6.50009 6.71193L10.6128 10.8247C10.7261 10.9381 10.8772 11.0003 11.0382 11.0003H11.0383C11.1994 11.0003 11.3505 10.9381 11.4638 10.8247L11.8242 10.4644C11.9373 10.3511 11.9997 10.2 11.9997 10.0389C11.9997 9.87787 11.9373 9.72682 11.8242 9.61351L7.71152 5.50068Z" fill="#F34A15"/>
</g>
<defs>
<clipPath id="clip0">
<rect width="12" height="11" fill="white"/>
</clipPath>
</defs>
</svg>
