<svg width="19" height="19" viewBox="0 0 19 19" fill="none" xmlns="http://www.w3.org/2000/svg">

        <path d="M0.282066 6.86692C0.532963 6.55216 0.909363 6.37159 1.31482 6.37159H4.97395L6.95815 1.82817C7.08117 1.54648 7.40929 1.41774 7.69103 1.54084C7.97276 1.66385 8.10142 1.99201 7.97836 2.27375L6.18877 6.37162H12.8112L11.0216 2.27375C10.8986 1.99201 11.0272 1.66389 11.309 1.54084C11.5907 1.41774 11.9188 1.5464 12.0418 1.82817L14.026 6.37162H17.6852C18.0906 6.37162 18.467 6.55216 18.7179 6.86696C18.9642 7.176 19.0551 7.5733 18.9673 7.95708L17.0132 16.4922C16.8767 17.0882 16.3495 17.5044 15.7311 17.5044H3.26889C2.65046 17.5044 2.12325 17.0882 1.9868 16.4922L0.0327282 7.95705C-0.0551109 7.57326 0.0357723 7.17597 0.282066 6.86692ZM3.26889 16.3911H15.7311C15.8256 16.3911 15.9084 16.3291 15.928 16.2437L17.882 7.70864C17.8974 7.64165 17.8716 7.59126 17.8473 7.56079C17.8247 7.53244 17.7736 7.4849 17.6852 7.4849H14.5122L14.658 7.81878C14.781 8.10051 14.6524 8.42863 14.3707 8.55169C14.2982 8.58338 14.2226 8.59837 14.1482 8.59837C13.9336 8.59837 13.7292 8.47357 13.6378 8.26439L13.2974 7.48498H5.70252L5.36212 8.26439C5.27075 8.47361 5.06628 8.59837 4.85171 8.59837C4.77735 8.59837 4.70176 8.58338 4.62924 8.55169C4.34751 8.42867 4.21885 8.10051 4.34191 7.81878L4.48771 7.4849H1.31474C1.22628 7.4849 1.17518 7.53244 1.15261 7.56079C1.12831 7.5913 1.10255 7.64169 1.11788 7.7086L3.07195 16.2438C3.09154 16.3291 3.17437 16.3911 3.26889 16.3911Z"
              fill="#8B93A9"/>
        <path d="M12.8398 9.89844C13.1473 9.89844 13.3965 10.1477 13.3965 10.4551V14.5371C13.3965 14.8445 13.1473 15.0938 12.8398 15.0938C12.5324 15.0938 12.2832 14.8445 12.2832 14.5371V10.4551C12.2832 10.1477 12.5324 9.89844 12.8398 9.89844Z"
              fill="#8B93A9"/>
        <path d="M9.5 9.89844C9.80741 9.89844 10.0566 10.1477 10.0566 10.4551V14.5371C10.0566 14.8445 9.80741 15.0938 9.5 15.0938C9.19259 15.0938 8.94336 14.8445 8.94336 14.5371V10.4551C8.94336 10.1477 9.19259 9.89844 9.5 9.89844Z"
              fill="#8B93A9"/>
        <path d="M6.16016 9.89844C6.46757 9.89844 6.7168 10.1477 6.7168 10.4551V14.5371C6.7168 14.8445 6.46757 15.0938 6.16016 15.0938C5.85274 15.0938 5.60352 14.8445 5.60352 14.5371V10.4551C5.60355 10.1477 5.85274 9.89844 6.16016 9.89844Z"
              fill="#8B93A9"/>


</svg>
