<svg width="20" height="20" viewBox="0 0 20 20" fill="none" xmlns="http://www.w3.org/2000/svg">

        <path d="M19.1523 7.25525H15.0032L12.6757 1.92583C12.5462 1.62931 12.2008 1.4938 11.9042 1.62337C11.6076 1.75286 11.4722 2.09829 11.6017 2.39486L13.7244 7.25529H6.27565L8.39831 2.39486C8.5278 2.09829 8.39241 1.7529 8.09585 1.62337C7.79932 1.4938 7.45385 1.62923 7.3244 1.92583L4.9969 7.25525H0.847716C0.304942 7.25525 -0.0978708 7.74661 0.0208793 8.26384L2.20584 17.7806C2.2926 18.1585 2.63612 18.4271 3.03268 18.4271H16.9674C17.3639 18.4271 17.7075 18.1585 17.7942 17.7806L19.9792 8.26384C20.0979 7.74665 19.6951 7.25525 19.1523 7.25525ZM5.10713 9.05228C5.02885 9.05228 4.94928 9.0365 4.87291 9.00314C4.57635 8.87365 4.44092 8.52825 4.57045 8.23165L5.01061 7.22376H6.28936L5.64436 8.70064C5.54823 8.92091 5.33299 9.05228 5.10713 9.05228ZM7.07034 15.3021C7.07034 15.6257 6.80799 15.8881 6.4844 15.8881C6.16081 15.8881 5.89846 15.6257 5.89846 15.3021V11.0052C5.89846 10.6817 6.16081 10.4193 6.4844 10.4193C6.80799 10.4193 7.07034 10.6817 7.07034 11.0052V15.3021ZM10.586 15.3021C10.586 15.6257 10.3236 15.8881 10 15.8881C9.67643 15.8881 9.41409 15.6257 9.41409 15.3021V11.0052C9.41409 10.6817 9.67643 10.4193 10 10.4193C10.3236 10.4193 10.586 10.6817 10.586 11.0052V15.3021ZM14.1016 15.3021C14.1016 15.6257 13.8392 15.8881 13.5157 15.8881C13.1921 15.8881 12.9297 15.6257 12.9297 15.3021V11.0052C12.9297 10.6817 13.1921 10.4193 13.5157 10.4193C13.8392 10.4193 14.1016 10.6817 14.1016 11.0052V15.3021ZM15.1271 9.00314C15.0508 9.0365 14.9712 9.05228 14.8929 9.05228C14.6671 9.05228 14.4518 8.92095 14.3557 8.70068L13.7107 7.2238H14.9894L15.4296 8.23169C15.5591 8.52825 15.4237 8.87365 15.1271 9.00314Z"
              />

</svg>
