<svg width="62" height="62" viewBox="0 0 62 62" fill="none" xmlns="http://www.w3.org/2000/svg">
<path d="M6.66016 62C10.3385 62 13.3203 59.0181 13.3203 55.3398C13.3203 51.6615 10.3385 48.6797 6.66016 48.6797C2.98185 48.6797 0 51.6615 0 55.3398C0 59.0181 2.98185 62 6.66016 62Z" fill="#4B4649"/>
<path d="M31.5743 25.7651L32.8164 26.179V19.6172H29.1836V26.179L30.4257 25.765C30.7985 25.6408 31.2015 25.6408 31.5743 25.7651Z" fill="#4B4649"/>
<path d="M36.4492 28.6992C36.4492 29.939 35.2345 30.8145 34.0585 30.4224L31 29.403L27.9415 30.4225C26.7655 30.8145 25.5508 29.9391 25.5508 28.6992V19.6172H20.1016C19.0984 19.6172 18.2852 20.4305 18.2852 21.4336V43.2305C18.2852 44.2336 19.0984 45.0469 20.1016 45.0469H41.8984C42.9016 45.0469 43.7148 44.2336 43.7148 43.2305V21.4336C43.7148 20.4305 42.9016 19.6172 41.8984 19.6172H36.4492V28.6992Z" fill="#4B4649"/>
<path d="M48.6793 30.5156H47.3473V34.1484H48.6793C54.021 34.1484 58.3668 38.4943 58.3668 43.8359C58.3668 49.1776 54.021 53.5234 48.6793 53.5234H16.7891C16.8947 54.1135 16.9528 54.7198 16.9528 55.3398C16.9528 55.9598 16.8945 56.5662 16.7891 57.1562H48.6793C56.0242 57.1562 61.9997 51.1808 61.9997 43.8359C61.9997 36.4911 56.0242 30.5156 48.6793 30.5156Z" fill="#4B4649"/>
<path d="M3.63281 20.8281C3.63281 15.4864 7.97863 11.1406 13.3203 11.1406H33.8805L32.1374 12.8836C31.4281 13.593 31.4281 14.743 32.1374 15.4523C32.8468 16.1617 33.9968 16.1617 34.7062 15.4523L39.5499 10.6086C40.2593 9.89923 40.2593 8.7492 39.5499 8.03984L34.7062 3.19609C33.9968 2.48672 32.8468 2.48672 32.1374 3.19609C31.4281 3.90545 31.4281 5.05548 32.1374 5.76485L33.8805 7.50775H13.3203C5.97549 7.50775 0 13.4832 0 20.8281C0 28.1729 5.97549 34.1484 13.3203 34.1484H14.6523V30.5156H13.3203C7.97863 30.5156 3.63281 26.1698 3.63281 20.8281Z" fill="#4B4649"/>
<path d="M51.5661 22.4045C51.9106 22.7885 52.4021 23.0078 52.918 23.0078C53.4338 23.0078 53.9253 22.7885 54.2699 22.4045C54.3468 22.3189 56.1731 20.2778 58.0255 17.702C60.6999 13.9831 62 11.1635 62 9.08203C62 4.0742 57.9258 0 52.918 0C47.9101 0 43.8359 4.0742 43.8359 9.08203C43.8359 11.1635 45.136 13.9831 47.8105 17.702C49.6628 20.2778 51.4892 22.3189 51.5661 22.4045ZM52.918 7.26562C53.9211 7.26562 54.7344 8.07889 54.7344 9.08203C54.7344 10.0852 53.9211 10.8984 52.918 10.8984C51.9148 10.8984 51.1016 10.0852 51.1016 9.08203C51.1016 8.07889 51.9148 7.26562 52.918 7.26562Z" fill="#4B4649"/>
</svg>
