<svg width="62" height="62" viewBox="0 0 62 62" fill="none" xmlns="http://www.w3.org/2000/svg">
<g filter="url(#filter0_i)">
<path d="M14.5312 56.5508C11.3106 56.5508 8.4125 55.1462 6.41555 52.918C4.68621 54.8476 3.63281 57.3947 3.63281 60.1836C3.63281 61.1867 4.44608 62 5.44922 62H23.6133C24.6164 62 25.4297 61.1867 25.4297 60.1836C25.4297 57.3947 24.3763 54.8476 22.647 52.918C20.65 55.1461 17.7519 56.5508 14.5312 56.5508Z" fill="#4B4649"/>
<path d="M14.5313 52.918C18.5439 52.918 21.7969 49.665 21.7969 45.6523C21.7969 41.6396 18.5439 38.3867 14.5313 38.3867C10.5186 38.3867 7.26562 41.6396 7.26562 45.6523C7.26562 49.665 10.5186 52.918 14.5313 52.918Z" fill="#4B4649"/>
<path d="M47.4678 56.5508C44.2472 56.5508 41.349 55.1462 39.3521 52.918C37.6227 54.8476 36.5693 57.3947 36.5693 60.1836C36.5693 61.1867 37.3826 62 38.3857 62H56.5498C57.5529 62 58.3662 61.1867 58.3662 60.1836C58.3662 57.3947 57.3128 54.8476 55.5835 52.918C53.5866 55.1461 50.6884 56.5508 47.4678 56.5508Z" fill="#4B4649"/>
<path d="M47.4678 52.918C51.4805 52.918 54.7334 49.665 54.7334 45.6523C54.7334 41.6396 51.4805 38.3867 47.4678 38.3867C43.4551 38.3867 40.2021 41.6396 40.2021 45.6523C40.2021 49.665 43.4551 52.918 47.4678 52.918Z" fill="#4B4649"/>
<path d="M60.1837 0H29.6709C28.6678 0 27.8545 0.813266 27.8545 1.81641V22.0186C27.8545 23.0217 28.6678 23.835 29.6709 23.835H43.0834L46.1842 26.936C46.5248 27.2766 46.9868 27.4679 47.4685 27.4679C47.9504 27.4679 48.4123 27.2765 48.7528 26.936L51.8537 23.835H60.1836C61.1868 23.835 62 23.0217 62 22.0186V1.81641C62.0001 0.813266 61.1869 0 60.1837 0ZM37.6605 16.5693C36.6574 16.5693 35.8441 15.756 35.8441 14.7529C35.8441 13.7497 36.6574 12.9364 37.6605 12.9364C38.6637 12.9364 39.4769 13.7497 39.4769 14.7529C39.4769 15.756 38.6637 16.5693 37.6605 16.5693ZM44.9274 16.5693C43.9242 16.5693 43.111 15.756 43.111 14.7529C43.111 13.7497 43.9242 12.9364 44.9274 12.9364C45.9305 12.9364 46.7438 13.7497 46.7438 14.7529C46.7438 15.756 45.9305 16.5693 44.9274 16.5693ZM52.1942 16.5693C51.1911 16.5693 50.3778 15.756 50.3778 14.7529C50.3778 13.7497 51.1911 12.9364 52.1942 12.9364C53.1974 12.9364 54.0106 13.7497 54.0106 14.7529C54.0106 15.756 53.1974 16.5693 52.1942 16.5693Z" fill="#4B4649"/>
<path d="M37.7789 29.3042V27.4679H29.6706C26.6659 27.4679 24.2214 25.0234 24.2214 22.0187V7.02344H1.81641C0.813266 7.02344 0 7.8367 0 8.83984V29.3042C0 30.3073 0.813266 31.1206 1.81641 31.1206H10.1462L13.247 34.2216C13.5877 34.5622 14.0497 34.7537 14.5314 34.7537C15.0131 34.7537 15.4752 34.5622 15.8157 34.2216L18.9165 31.1206H35.9623C36.9657 31.1206 37.7789 30.3073 37.7789 29.3042ZM11.6231 23.8362C10.6196 23.8362 9.80605 23.0227 9.80605 22.0192C9.80605 21.0157 10.6196 20.2022 11.6231 20.2022C12.6267 20.2022 13.4402 21.0157 13.4402 22.0192C13.4401 23.0227 12.6267 23.8362 11.6231 23.8362ZM18.8893 23.8362C17.8858 23.8362 17.0723 23.0227 17.0723 22.0192C17.0723 21.0157 17.8858 20.2022 18.8893 20.2022C19.8929 20.2022 20.7064 21.0157 20.7064 22.0192C20.7064 23.0227 19.893 23.8362 18.8893 23.8362Z" fill="#4B4649"/>
</g>
<defs>
<filter id="filter0_i" x="0" y="0" width="62" height="66" filterUnits="userSpaceOnUse" color-interpolation-filters="sRGB">
<feFlood flood-opacity="0" result="BackgroundImageFix"/>
<feBlend mode="normal" in="SourceGraphic" in2="BackgroundImageFix" result="shape"/>
<feColorMatrix in="SourceAlpha" type="matrix" values="0 0 0 0 0 0 0 0 0 0 0 0 0 0 0 0 0 0 127 0" result="hardAlpha"/>
<feOffset dy="4"/>
<feGaussianBlur stdDeviation="2"/>
<feComposite in2="hardAlpha" operator="arithmetic" k2="-1" k3="1"/>
<feColorMatrix type="matrix" values="0 0 0 0 0 0 0 0 0 0 0 0 0 0 0 0 0 0 0.25 0"/>
<feBlend mode="normal" in2="shape" result="effect1_innerShadow"/>
</filter>
</defs>
</svg>
