<svg width="62" height="62" viewBox="0 0 62 62" fill="none" xmlns="http://www.w3.org/2000/svg">
<g clip-path="url(#clip0)" filter="url(#filter0_i)">
<path fill-rule="evenodd" clip-rule="evenodd" d="M29.8955 0H35.431V12.1783H29.8955V0Z" fill="#4B4649"/>
<path fill-rule="evenodd" clip-rule="evenodd" d="M37.6455 0H43.1822V12.1783H37.6455V0Z" fill="#4B4649"/>
<path fill-rule="evenodd" clip-rule="evenodd" d="M61.4851 37.3358C60.6919 36.392 59.2851 36.2668 58.3376 37.0557L48.7057 45.1177V45.1652C48.7683 46.3787 48.3295 47.5647 47.4921 48.4452C46.6547 49.3257 45.4924 49.8234 44.2773 49.8218H30.9897C30.3782 49.8218 29.8826 49.3261 29.8826 48.7147C29.8826 48.1033 30.3782 47.6076 30.9897 47.6076H44.2805C44.8887 47.6084 45.4704 47.3591 45.8892 46.9181C46.308 46.4772 46.527 45.8834 46.4948 45.276C46.4902 45.1861 46.4795 45.0965 46.4626 45.0081C46.4439 44.9523 46.4302 44.8948 46.4216 44.8366C46.0961 43.8321 45.1525 43.158 44.0967 43.1759H31.706C30.9621 43.184 30.2383 42.9339 29.6579 42.4685C28.4762 41.4876 26.9867 40.9546 25.4509 40.9628C20.7271 40.8281 16.1723 42.7251 12.9406 46.1729C12.2818 46.8316 11.5478 47.5845 10.7695 48.3959L0.335955 59.8445C-0.00819836 60.2218 -0.096474 60.7669 0.110791 61.2336C0.318055 61.7003 0.781808 62.0003 1.29244 61.9978H15.0904C15.7376 61.9978 16.3525 61.7147 16.7732 61.2229L19.9584 57.5107C21.0059 56.15 22.6264 55.3533 24.3437 55.3552H45.3888C46.204 55.3253 46.9765 54.9833 47.5465 54.3997L61.3677 40.3394C62.1637 39.5132 62.2141 38.2217 61.4851 37.3358Z" fill="#4B4649"/>
<path fill-rule="evenodd" clip-rule="evenodd" d="M45.3955 27.6777H53.1464V32.1062H45.3955V27.6777Z" fill="#4B4649"/>
<path d="M31.0674 40.7639C31.2506 40.9028 31.4764 40.9739 31.7061 40.9654H44.0991C45.6065 40.9542 47.0264 41.6722 47.9109 42.8929L56.9173 35.3579C57.4304 34.9328 58.0335 34.63 58.6808 34.4722V1.10711C58.6808 0.495686 58.1852 0 57.5737 0H45.3957V12.1783C45.3957 13.4011 44.4043 14.3925 43.1814 14.3925H29.8961C28.6732 14.3925 27.6819 13.4011 27.6819 12.1783V0H15.5036C14.8922 0 14.3965 0.495686 14.3965 1.10711V42.0558C17.6307 39.7953 21.5067 38.6358 25.451 38.7488C27.5001 38.7494 29.4854 39.4616 31.0674 40.7639ZM43.1814 27.6779C43.1814 26.455 44.1728 25.4637 45.3957 25.4637H53.1454C54.3682 25.4637 55.3596 26.455 55.3596 27.6779V32.1063C55.3596 33.3291 54.3682 34.3205 53.1454 34.3205H45.3957C44.1728 34.3205 43.1814 33.3291 43.1814 32.1063V27.6779ZM26.8991 28.0022L29.1133 25.788C29.5456 25.3557 30.2464 25.3557 30.6788 25.788L32.893 28.0022C33.1808 28.2801 33.2962 28.6918 33.1949 29.0789C33.0936 29.466 32.7913 29.7682 32.4042 29.8696C32.0171 29.9709 31.6054 29.8555 31.3275 29.5677L31.0031 29.2432V34.3204C31.0031 34.9318 30.5074 35.4275 29.896 35.4275C29.2846 35.4275 28.7889 34.9318 28.7889 34.3204V29.2432L28.4644 29.5677C28.0301 29.9872 27.3395 29.9812 26.9125 29.5541C26.4856 29.1271 26.4796 28.4367 26.8991 28.0022ZM24.0361 29.5677C23.6038 29.9999 22.903 29.9999 22.4707 29.5677L22.1462 29.2432V34.3204C22.1462 34.9318 21.6505 35.4275 21.0391 35.4275C20.4277 35.4275 19.932 34.9318 19.932 34.3204V29.2432L19.6076 29.5677C19.1732 29.9872 18.4827 29.9812 18.0557 29.5541C17.6286 29.1271 17.6226 28.4366 18.0421 28.0022L20.2563 25.788C20.6887 25.3557 21.3895 25.3557 21.8218 25.788L24.036 28.0022C24.4683 28.4345 24.4683 29.1353 24.0361 29.5677Z" fill="#4B4649"/>
</g>
<defs>
<filter id="filter0_i" x="0" y="0" width="62" height="66" filterUnits="userSpaceOnUse" color-interpolation-filters="sRGB">
<feFlood flood-opacity="0" result="BackgroundImageFix"/>
<feBlend mode="normal" in="SourceGraphic" in2="BackgroundImageFix" result="shape"/>
<feColorMatrix in="SourceAlpha" type="matrix" values="0 0 0 0 0 0 0 0 0 0 0 0 0 0 0 0 0 0 127 0" result="hardAlpha"/>
<feOffset dy="4"/>
<feGaussianBlur stdDeviation="2"/>
<feComposite in2="hardAlpha" operator="arithmetic" k2="-1" k3="1"/>
<feColorMatrix type="matrix" values="0 0 0 0 0 0 0 0 0 0 0 0 0 0 0 0 0 0 0.25 0"/>
<feBlend mode="normal" in2="shape" result="effect1_innerShadow"/>
</filter>
<clipPath id="clip0">
<rect width="62" height="62" fill="white"/>
</clipPath>
</defs>
</svg>
