<svg width="62" height="62" viewBox="0 0 62 62" fill="none" xmlns="http://www.w3.org/2000/svg">
<g filter="url(#filter0_i)">
<path d="M47.1739 43.875L46.1851 44.3511L43.3073 47.9597C43.0358 48.3019 42.6904 48.5781 42.2968 48.7676C41.9033 48.9572 41.4719 49.055 41.0351 49.0539H36.4195L33.8115 50.3099L41.9416 60.9996C42.0772 61.1778 42.2521 61.3223 42.4527 61.4218C42.6533 61.5213 42.8742 61.5731 43.0981 61.5731C43.1447 61.5731 43.1917 61.5708 43.2385 61.5663C43.4851 61.5424 43.7214 61.4559 43.9251 61.3149C44.1288 61.174 44.2931 60.9833 44.4024 60.761L46.949 55.5811L52.6208 54.5105C52.8642 54.4646 53.0918 54.3572 53.282 54.1985C53.4722 54.0399 53.6187 53.8352 53.7076 53.604C53.7965 53.3728 53.8248 53.1227 53.7898 52.8774C53.7548 52.6322 53.6578 52.4 53.5078 52.2029L47.1739 43.875Z" fill="#4B4649"/>
<path d="M20.9646 49.0538C20.5278 49.0549 20.0965 48.957 19.703 48.7675C19.3095 48.578 18.964 48.3018 18.6925 47.9597L15.8146 44.3511L14.8258 43.875L8.4919 52.2027C8.34193 52.3999 8.24485 52.6321 8.20987 52.8773C8.1749 53.1226 8.20319 53.3726 8.29206 53.6039C8.38093 53.8351 8.52744 54.0397 8.71766 54.1984C8.90788 54.3571 9.13551 54.4645 9.37892 54.5104L15.0508 55.581L17.5973 60.7609C17.7066 60.9832 17.8709 61.1739 18.0746 61.3148C18.2783 61.4558 18.5146 61.5423 18.7611 61.5662C18.8081 61.5706 18.8549 61.5729 18.9016 61.573C19.1255 61.5729 19.3464 61.5212 19.547 61.4217C19.7476 61.3222 19.9225 61.1777 20.0581 60.9995L28.1882 50.3098L25.5803 49.0538H20.9646Z" fill="#4B4649"/>
<path d="M53.865 25.3086L54.9659 20.4852C55.0145 20.2724 55.0145 20.0513 54.9659 19.8385C54.9173 19.6257 54.8214 19.4265 54.6853 19.2558L51.6007 15.3879L50.4998 10.5646C50.4513 10.3518 50.3554 10.1526 50.2193 9.98196C50.0832 9.81129 49.9104 9.67348 49.7137 9.57876L45.2564 7.43213L42.1716 3.56415C42.0355 3.39348 41.8627 3.25567 41.666 3.16095C41.4693 3.06623 41.2538 3.01705 41.0355 3.01705H36.0882L31.6308 0.870424C31.4341 0.775733 31.2186 0.726562 31.0002 0.726562C30.7819 0.726563 30.5664 0.775733 30.3697 0.870424L25.9122 3.01705H20.965C20.7467 3.01707 20.5312 3.06626 20.3345 3.16098C20.1379 3.25569 19.9651 3.3935 19.829 3.56415L16.7442 7.43213L12.2869 9.57852C12.0902 9.67322 11.9174 9.81103 11.7813 9.9817C11.6451 10.1524 11.5492 10.3515 11.5006 10.5643L10.3998 15.3879L7.31515 19.2558C7.17902 19.4265 7.0831 19.6257 7.03451 19.8385C6.98591 20.0513 6.98589 20.2724 7.03445 20.4852L8.13544 25.3086L7.03445 30.132C6.98589 30.3448 6.98591 30.5659 7.03451 30.7787C7.0831 30.9915 7.17902 31.1907 7.31515 31.3613L10.3998 35.2293L11.5006 40.0526C11.5492 40.2654 11.6451 40.4646 11.7813 40.6352C11.9174 40.8059 12.0902 40.9437 12.2869 41.0384L16.7442 43.1851L19.829 47.053C19.9651 47.2237 20.1379 47.3615 20.3345 47.4562C20.5312 47.5509 20.7467 47.6001 20.965 47.6001H25.9122L30.3697 49.7468C30.5664 49.8415 30.7819 49.8906 31.0002 49.8906C31.2186 49.8906 31.4341 49.8415 31.6308 49.7468L36.0882 47.6001H41.0355C41.2538 47.6001 41.4693 47.551 41.666 47.4562C41.8627 47.3615 42.0355 47.2237 42.1716 47.053L45.2564 43.1851L49.7137 41.0387C49.9104 40.944 50.0832 40.8061 50.2193 40.6355C50.3554 40.4648 50.4513 40.2657 50.4998 40.0528L51.6007 35.2296L54.6853 31.3616C54.8214 31.1909 54.9173 30.9918 54.9659 30.7789C55.0145 30.5661 55.0145 30.3451 54.9659 30.1322L53.865 25.3086ZM31.0002 43.1094C21.2522 43.1094 13.3206 35.1783 13.3206 25.4297C13.3206 15.681 21.2522 7.75 31.0002 7.75C40.7483 7.75 48.6799 15.6816 48.6799 25.4297C48.6799 35.1777 40.7489 43.1094 31.0002 43.1094Z" fill="#4B4649"/>
<path d="M31 9.20312C22.0526 9.20312 14.7734 16.4823 14.7734 25.4297C14.7734 34.3771 22.0526 41.6562 31 41.6562C39.9474 41.6562 47.2266 34.3771 47.2266 25.4297C47.2266 16.4823 39.9474 9.20312 31 9.20312ZM31 16.5082C31.2874 16.5082 31.5683 16.5935 31.8073 16.7531C32.0463 16.9128 32.2325 17.1397 32.3425 17.4053C32.4525 17.6708 32.4813 17.963 32.4252 18.2448C32.3691 18.5267 32.2307 18.7856 32.0275 18.9889C31.8243 19.1921 31.5654 19.3305 31.2835 19.3866C31.0016 19.4426 30.7094 19.4138 30.4439 19.3039C30.1784 19.1939 29.9514 19.0076 29.7918 18.7687C29.6321 18.5297 29.5469 18.2488 29.5469 17.9614C29.5469 17.576 29.7 17.2064 29.9725 16.9338C30.245 16.6613 30.6146 16.5082 31 16.5082ZM20.8281 23.25C20.5407 23.25 20.2598 23.1648 20.0208 23.0051C19.7818 22.8454 19.5956 22.6185 19.4856 22.353C19.3756 22.0874 19.3469 21.7953 19.4029 21.5134C19.459 21.2315 19.5974 20.9726 19.8006 20.7694C20.0038 20.5661 20.2628 20.4277 20.5446 20.3717C20.8265 20.3156 21.1187 20.3444 21.3842 20.4544C21.6497 20.5643 21.8767 20.7506 22.0364 20.9896C22.196 21.2285 22.2812 21.5095 22.2812 21.7969C22.2812 22.1823 22.1282 22.5519 21.8556 22.8244C21.5831 23.0969 21.2135 23.25 20.8281 23.25ZM40.0383 24.8802L38.6555 33.1764C38.599 33.5157 38.4239 33.8239 38.1614 34.0463C37.899 34.2686 37.5661 34.3906 37.2222 34.3906H24.7778C24.4339 34.3906 24.101 34.2686 23.8386 34.0463C23.5761 33.8239 23.401 33.5157 23.3445 33.1764L21.9617 24.8802C21.9152 24.6017 21.9509 24.3158 22.0643 24.0573C22.1777 23.7988 22.364 23.5789 22.6003 23.4246C22.8366 23.2702 23.1128 23.188 23.3951 23.188C23.6773 23.188 23.9535 23.2702 24.1898 23.4246L27.1687 25.3702L29.7589 21.1198C29.8886 20.907 30.0709 20.7311 30.2882 20.6091C30.5055 20.487 30.7505 20.4229 30.9998 20.4229C31.249 20.4229 31.494 20.487 31.7113 20.6091C31.9286 20.7311 32.1109 20.907 32.2406 21.1198L34.8309 25.3702L37.8098 23.4246C38.0461 23.2702 38.3223 23.188 38.6046 23.188C38.8869 23.188 39.163 23.2702 39.3993 23.4246C39.6357 23.5789 39.8219 23.7988 39.9353 24.0573C40.0487 24.3158 40.0844 24.6017 40.038 24.8802H40.0383ZM41.1719 23.25C40.8845 23.25 40.6035 23.1648 40.3646 23.0051C40.1256 22.8454 39.9393 22.6185 39.8294 22.353C39.7194 22.0874 39.6906 21.7953 39.7467 21.5134C39.8027 21.2315 39.9411 20.9726 40.1444 20.7694C40.3476 20.5661 40.6065 20.4277 40.8884 20.3717C41.1703 20.3156 41.4624 20.3444 41.728 20.4544C41.9935 20.5643 42.2204 20.7506 42.3801 20.9896C42.5398 21.2285 42.625 21.5095 42.625 21.7969C42.625 22.1823 42.4719 22.5519 42.1994 22.8244C41.9269 23.0969 41.5573 23.25 41.1719 23.25Z" fill="#4B4649"/>
</g>
<defs>
<filter id="filter0_i" x="0" y="0" width="62" height="66" filterUnits="userSpaceOnUse" color-interpolation-filters="sRGB">
<feFlood flood-opacity="0" result="BackgroundImageFix"/>
<feBlend mode="normal" in="SourceGraphic" in2="BackgroundImageFix" result="shape"/>
<feColorMatrix in="SourceAlpha" type="matrix" values="0 0 0 0 0 0 0 0 0 0 0 0 0 0 0 0 0 0 127 0" result="hardAlpha"/>
<feOffset dy="4"/>
<feGaussianBlur stdDeviation="2"/>
<feComposite in2="hardAlpha" operator="arithmetic" k2="-1" k3="1"/>
<feColorMatrix type="matrix" values="0 0 0 0 0 0 0 0 0 0 0 0 0 0 0 0 0 0 0.25 0"/>
<feBlend mode="normal" in2="shape" result="effect1_innerShadow"/>
</filter>
</defs>
</svg>
