<svg width="15" height="15" viewBox="0 0 15 15" fill="none" xmlns="http://www.w3.org/2000/svg">
<g clip-path="url(#clip0)">
<path d="M14.345 0.976492C13.6681 0.612021 12.9131 1.31493 12.4705 1.73147C11.4553 2.72075 10.5962 3.86623 9.63286 4.90758C8.56548 6.05306 7.5762 7.19854 6.48279 8.31803C5.85798 8.94284 5.1811 9.61972 4.76456 10.4007C3.82735 9.48951 3.02031 8.50023 1.97896 7.69323C1.22398 7.12048 -0.0256333 6.70395 0.000400376 8.08373C0.0524677 9.8801 1.64052 11.8066 2.81204 13.0301C3.30668 13.5508 3.95752 14.0975 4.7125 14.1235C5.62368 14.1756 6.56089 13.0822 7.1076 12.4834C8.07089 11.4421 8.8519 10.2705 9.737 9.20318C10.8825 7.79736 12.054 6.41753 13.1734 4.98568C13.8764 4.10053 16.0892 1.91366 14.345 0.976492ZM1.14584 7.9796C1.11981 7.9796 1.09377 7.9796 1.04171 8.00559C0.937571 7.9796 0.859469 7.95352 0.755335 7.90145C0.833436 7.84939 0.963604 7.87542 1.14584 7.9796Z" fill="#33C138"/>
</g>
<defs>
<clipPath id="clip0">
<rect width="15" height="15" fill="white"/>
</clipPath>
</defs>
</svg>
