<svg width="28" height="28" viewBox="0 0 28 28" fill="none" xmlns="http://www.w3.org/2000/svg">
    <path d="M17.0839 13.999L27.5527 24.4682C27.8407 24.7564 27.9995 25.1409 28 25.5509C28 25.9611 27.8411 26.346 27.5527 26.6338L26.6353 27.551C26.3469 27.8398 25.9624 27.998 25.5519 27.998C25.1422 27.998 24.7577 27.8398 24.4693 27.551L14.0005 17.0824L3.53119 27.551C3.24322 27.8398 2.8585 27.998 2.44829 27.998C2.03854 27.998 1.65382 27.8398 1.36585 27.551L0.448 26.6338C-0.149333 26.0365 -0.149333 25.0649 0.448 24.4682L10.917 13.999L0.448 3.53015C0.159805 3.2415 0.00113821 2.85701 0.00113821 2.44702C0.00113821 2.03704 0.159805 1.65255 0.448 1.36413L1.36563 0.446959C1.65359 0.158308 2.03854 -0.000131607 2.44807 -0.000131607C2.85828 -0.000131607 3.24299 0.158308 3.53096 0.446959L14.0002 10.9158L24.469 0.446959C24.7575 0.158308 25.142 -0.000131607 25.5517 -0.000131607H25.5522C25.9621 -0.000131607 26.3466 0.158308 26.6351 0.446959L27.5525 1.36413C27.8404 1.65232 27.9993 2.03704 27.9993 2.44702C27.9993 2.85701 27.8404 3.2415 27.5525 3.52992L17.0839 13.999Z"
          />
</svg>
