<svg width="32" height="32" viewBox="0 0 32 32" fill="none" xmlns="http://www.w3.org/2000/svg">
<path d="M21.2109 16.1646L31.9989 22.9846V9.05664L21.2109 16.1646Z" fill="#4B4649"/>
<path d="M0 9.05664V22.9846L10.788 16.1646L0 9.05664Z" fill="#4B4649"/>
<path d="M29.9986 5H1.99859C1.00059 5 0.208594 5.744 0.0585938 6.702L15.9986 17.204L31.9386 6.702C31.7886 5.744 30.9966 5 29.9986 5Z" fill="#4B4649"/>
<path d="M19.3805 17.3711L16.5505 19.2351C16.3825 19.3451 16.1925 19.3991 16.0005 19.3991C15.8085 19.3991 15.6185 19.3451 15.4505 19.2351L12.6205 17.3691L0.0644531 25.3111C0.218453 26.2611 1.00645 26.9991 2.00045 26.9991H30.0005C30.9945 26.9991 31.7825 26.2611 31.9365 25.3111L19.3805 17.3711Z" fill="#4B4649"/>
</svg>
