<svg width="37" height="37" viewBox="0 0 37 37" fill="none" xmlns="http://www.w3.org/2000/svg">
<path d="M18.4994 0C11.6989 0 6.16602 5.53287 6.16602 12.3334C6.16602 14.3749 6.67643 16.399 7.64674 18.1944L17.8249 36.6025C17.9604 36.848 18.2186 37 18.4994 37C18.7801 37 19.0383 36.848 19.1738 36.6025L29.3558 18.1883C30.3223 16.399 30.8327 14.3748 30.8327 12.3333C30.8327 5.53287 25.2999 0 18.4994 0ZM18.4994 18.5C15.0991 18.5 12.3327 15.7336 12.3327 12.3334C12.3327 8.93312 15.0991 6.16671 18.4994 6.16671C21.8996 6.16671 24.666 8.93312 24.666 12.3334C24.666 15.7336 21.8996 18.5 18.4994 18.5Z" fill="#4B4649"/>
</svg>
