<svg width="50" height="50" viewBox="0 0 50 50" fill="none" xmlns="http://www.w3.org/2000/svg">
<g clip-path="url(#clip0)">
<path d="M49.7114 10.4464C49.4252 10.0362 48.9647 9.78266 48.4644 9.76129L17.4489 8.42438C16.559 8.38544 15.8154 9.07247 15.7774 9.95822C15.7395 10.8436 16.4254 11.5918 17.3111 11.6298L46.2267 12.8763L40.5413 30.6152H15.2405L10.6695 5.72663C10.569 5.18114 10.1945 4.72607 9.67803 4.52343L2.19157 1.58231C1.36646 1.25927 0.435398 1.66455 0.111354 2.48865C-0.212131 3.31319 0.193036 4.24482 1.01769 4.56886L7.67436 7.18393L12.326 32.5094C12.4662 33.2707 13.1297 33.8237 13.9041 33.8237H14.6758L12.9138 38.7179C12.7663 39.1279 12.8271 39.5832 13.078 39.9393C13.3287 40.2956 13.7363 40.5075 14.1715 40.5075H15.4073C14.6415 41.3598 14.1715 42.482 14.1715 43.7161C14.1715 46.37 16.3309 48.5288 18.9842 48.5288C21.6376 48.5288 23.797 46.37 23.797 43.7161C23.797 42.4821 23.3269 41.3598 22.5612 40.5075H33.0543C32.2882 41.3598 31.8182 42.482 31.8182 43.7161C31.8182 46.37 33.9771 48.5288 36.631 48.5288C39.285 48.5288 41.4437 46.37 41.4437 43.7161C41.4437 42.4821 40.9738 41.3598 40.2082 40.5075H41.7112C42.4497 40.5075 43.0481 39.909 43.0481 39.1707C43.0481 38.4322 42.4496 37.8338 41.7112 37.8338H16.0737L17.5173 33.8232H41.7111C42.4087 33.8232 43.026 33.3725 43.2385 32.7088L49.9229 11.8532C50.0764 11.3773 49.9977 10.8568 49.7114 10.4464ZM18.9843 45.8556C17.8046 45.8556 16.8453 44.8963 16.8453 43.7166C16.8453 42.5369 17.8046 41.5776 18.9843 41.5776C20.164 41.5776 21.1233 42.5369 21.1233 43.7166C21.1233 44.8963 20.164 45.8556 18.9843 45.8556ZM36.631 45.8556C35.4513 45.8556 34.492 44.8963 34.492 43.7166C34.492 42.5369 35.4513 41.5776 36.631 41.5776C37.8107 41.5776 38.7699 42.5369 38.7699 43.7166C38.7699 44.8963 37.8107 45.8556 36.631 45.8556Z" fill="#DCDCDC"/>
</g>
<defs>
<clipPath id="clip0">
<rect width="50" height="50" fill="white"/>
</clipPath>
</defs>
</svg>
