<svg width="19" height="19" viewBox="0 0 19 19" fill="none" xmlns="http://www.w3.org/2000/svg">
<g clip-path="url(#clip0)">
<path d="M9.5 3.83713C13.1302 3.83713 16.4222 5.82322 18.8513 9.04916C19.0496 9.31345 19.0496 9.68268 18.8513 9.94698C16.4222 13.1768 13.1302 15.1629 9.5 15.1629C5.86985 15.1629 2.57784 13.1768 0.148664 9.95086C-0.0495548 9.68657 -0.0495548 9.31734 0.148664 9.05304C2.57784 5.82322 5.86985 3.83713 9.5 3.83713ZM9.23959 13.4877C11.6493 13.6393 13.6393 11.6532 13.4877 9.2396C13.3634 7.24963 11.7504 5.63666 9.76041 5.51228C7.35067 5.3607 5.36069 7.34679 5.51227 9.76042C5.64053 11.7465 7.2535 13.3595 9.23959 13.4877ZM9.36008 11.6455C10.6582 11.7271 11.7309 10.6582 11.6454 9.36009C11.5794 8.28737 10.7088 7.42064 9.63603 7.35068C8.33788 7.26906 7.26516 8.3379 7.35067 9.63604C7.42063 10.7127 8.29124 11.5794 9.36008 11.6455Z" fill="#909090"/>
</g>
<defs>
<clipPath id="clip0">
<rect width="19" height="19" fill="white" transform="matrix(-1 0 0 1 19 0)"/>
</clipPath>
</defs>
</svg>
