<svg width="19" height="19" viewBox="0 0 19 19" fill="none" xmlns="http://www.w3.org/2000/svg">
    <path d="M13.9531 1.11328C12.9221 1.11328 11.9769 1.43999 11.1437 2.08436C10.3449 2.70212 9.81309 3.48895 9.5 4.0611C9.18691 3.48891 8.65509 2.70212 7.85631 2.08436C7.02313 1.43999 6.07788 1.11328 5.04688 1.11328C2.16971 1.11328 0 3.46665 0 6.58743C0 9.95897 2.70687 12.2657 6.80471 15.7578C7.50058 16.3509 8.28934 17.0231 9.10916 17.74C9.21723 17.8346 9.35602 17.8867 9.5 17.8867C9.64398 17.8867 9.78277 17.8346 9.89084 17.74C10.7107 17.023 11.4995 16.3508 12.1957 15.7575C16.2931 12.2657 19 9.95897 19 6.58743C19 3.46665 16.8303 1.11328 13.9531 1.11328Z"
    />
</svg>
