<svg width="16" height="16" viewBox="0 0 16 16" fill="none" xmlns="http://www.w3.org/2000/svg">
<g clip-path="url(#clip0)">
<path fill-rule="evenodd" clip-rule="evenodd" d="M12.8262 4.73705C12.8746 4.72163 12.9383 4.75247 13.002 4.83729C13.002 4.83729 13.002 4.83729 15.8808 7.68002C16.0489 7.84966 16.0489 8.10669 15.8808 8.23263C15.8808 8.23263 15.8808 8.23263 13.002 11.1191C12.9383 11.2039 12.8746 11.2244 12.8262 11.1987C12.7778 11.173 12.7472 11.0985 12.7472 10.9905V4.92211C12.7472 4.81673 12.7778 4.75247 12.8262 4.73705Z" fill="#ED1C24"/>
<path fill-rule="evenodd" clip-rule="evenodd" d="M7.9014 0H8.10522L8.30139 0.0822493C8.30139 0.0822493 8.30139 0.0822491 11.2643 3.05349C11.3917 3.22313 11.3484 3.35165 11.1369 3.35165C11.1369 3.35165 11.1369 3.35165 9.90895 3.35165C9.69749 3.35165 9.52935 3.52128 9.52935 3.73462C9.52935 3.73462 9.52935 3.73462 9.52935 5.93992C9.52935 6.15325 9.35866 6.32289 9.10389 6.32289C9.10389 6.32289 9.10389 6.32289 6.94604 6.32289C6.73458 6.32289 6.56389 6.15325 6.56389 5.93992C6.56389 5.93992 6.56389 5.93992 6.56389 3.73462C6.56389 3.52128 6.39575 3.35165 6.18175 3.35165H4.86971C4.65826 3.35165 4.61495 3.22313 4.74233 3.05349C4.74233 3.05349 4.74233 3.05349 7.70778 0.0822493L7.9014 0Z" fill="#ED1C24"/>
<path fill-rule="evenodd" clip-rule="evenodd" d="M3.25971 4.67275C3.31321 4.69845 3.34633 4.77299 3.34633 4.88094V11.0753C3.34633 11.1833 3.31321 11.2475 3.25971 11.2681C3.20876 11.2887 3.13488 11.2681 3.04826 11.2038C3.04826 11.2038 3.04826 11.2038 0.126108 8.23259C-0.0420361 8.10665 -0.0420361 7.84962 0.126108 7.67998C0.126108 7.67998 0.126109 7.67998 3.04826 4.75243C3.13488 4.66761 3.20876 4.64705 3.25971 4.67275Z" fill="#ED1C24"/>
<path fill-rule="evenodd" clip-rule="evenodd" d="M6.94617 9.5486C6.94617 9.5486 6.94617 9.5486 9.10403 9.5486C9.35879 9.5486 9.52948 9.71824 9.52948 9.93157C9.52948 9.93157 9.52948 9.93157 9.52948 12.2654C9.52948 12.5198 9.69763 12.6895 9.90908 12.6895H11.053C11.2644 12.6895 11.3485 12.8154 11.1804 12.9439C11.1804 12.9439 11.1804 12.9439 8.30152 15.8715C8.2149 15.9563 8.11045 16 8.00344 16C7.89899 16 7.79199 15.9563 7.70792 15.8715C7.70792 15.8715 7.70792 15.8715 4.82908 12.9439C4.65839 12.8154 4.74246 12.6895 4.95392 12.6895C4.95392 12.6895 4.95392 12.6895 6.18188 12.6895C6.39588 12.6895 6.56403 12.5198 6.56403 12.2654C6.56403 12.2654 6.56403 12.2654 6.56403 9.93157C6.56403 9.71824 6.73472 9.5486 6.94617 9.5486Z" fill="#ED1C24"/>
</g>
<defs>
<clipPath id="clip0">
<rect width="16" height="16" fill="white"/>
</clipPath>
</defs>
</svg>
