<svg width="18" height="18" viewBox="0 0 18 18" fill="none" xmlns="http://www.w3.org/2000/svg">
<g clip-path="url(#clip0)">
<path d="M17.4727 1.08984H4.78125C4.49002 1.08984 4.25391 1.32595 4.25391 1.61719V8.50722C3.54821 8.62815 2.89747 8.98808 2.42068 9.52734H2.14453V9C2.14453 8.70877 1.90842 8.47266 1.61719 8.47266H0.527344C0.236109 8.47266 0 8.70877 0 9C0 9.29123 0.236109 9.52734 0.527344 9.52734H1.08984V15.8555H0.527344C0.236109 15.8555 0 16.0916 0 16.3828C0 16.674 0.236109 16.9102 0.527344 16.9102H1.61719C1.90842 16.9102 2.14453 16.674 2.14453 16.3828V15.8555H2.58979C5.95294 16.9199 5.82585 16.9102 5.97656 16.9102H13.2188C14.3097 16.9102 15.0739 15.8267 14.7101 14.8008H17.4727C17.7639 14.8008 18 14.5647 18 14.2734V1.61719C18 1.32595 17.7639 1.08984 17.4727 1.08984ZM10.0547 2.14453H12.1641V4.78125H10.0547V2.14453ZM13.7461 15.3281C13.7461 15.6189 13.5095 15.8555 13.2188 15.8555H6.05865C2.69554 14.791 2.82262 14.8008 2.67188 14.8008H2.14453V10.582H2.67188C2.83936 10.582 2.99689 10.5025 3.09628 10.3677C3.93149 9.23523 5.63034 9.23432 6.46618 10.3677C6.56561 10.5025 6.72314 10.582 6.89062 10.582H9.52734C9.81812 10.582 10.0547 10.8186 10.0547 11.1094C10.0547 11.4002 9.81812 11.6367 9.52734 11.6367H6.36328C6.07205 11.6367 5.83594 11.8728 5.83594 12.1641C5.83594 13.6179 7.01877 14.8008 8.47266 14.8008H13.2188C13.5095 14.8008 13.7461 15.0373 13.7461 15.3281ZM16.9453 13.7461C16.6256 13.7461 8.90701 13.7461 8.47266 13.7461C7.78514 13.7461 7.19863 13.3053 6.98098 12.6914H9.52734C10.3997 12.6914 11.1094 11.9817 11.1094 11.1094C11.1094 10.237 10.3997 9.52734 9.52734 9.52734H7.14182C6.66506 8.98808 6.01429 8.62815 5.30859 8.50722V2.14453H9V5.30859C9 5.59983 9.23611 5.83594 9.52734 5.83594H12.6914C12.9826 5.83594 13.2188 5.59983 13.2188 5.30859V2.14453H16.9453V13.7461Z" fill="#4B4649"/>
</g>
<defs>
<clipPath id="clip0">
<rect width="18" height="18" fill="white"/>
</clipPath>
</defs>
</svg>
