<svg width="21" height="21" viewBox="0 0 21 21" fill="none" xmlns="http://www.w3.org/2000/svg">
<g clip-path="url(#clip0)">
<path d="M17.0552 17.0657C16.0444 16.3454 14.2687 16.0018 13.0288 15.8553C16.8975 9.88422 16.6786 10.2255 16.7017 10.1795C17.8284 7.95135 17.7042 5.35691 16.369 3.23911C15.056 1.15654 12.7987 -0.0535422 10.3282 0.00182887C5.20981 0.117124 1.97934 5.59509 4.29795 10.1794C4.32088 10.2253 4.09078 9.86674 7.97078 15.8552C6.30632 16.0519 3.15723 16.6707 3.15723 18.3566C3.15723 21.0184 11.3154 21.6237 15.4338 20.3809C16.1163 20.175 16.6615 19.9284 17.0552 19.6475C18.1055 18.8987 18.1055 17.8151 17.0552 17.0657ZM5.38167 9.59534C3.49237 5.81067 6.16892 1.32659 10.356 1.23201C14.7247 1.13411 17.5465 5.73138 15.6179 9.59534L11.6375 15.74L10.8564 16.9451L10.8232 16.9968C10.7203 17.1555 10.5628 17.1727 10.4996 17.1727C10.4368 17.1727 10.2793 17.1555 10.1763 16.9968L10.1431 16.9451C9.13103 15.3833 10.0011 16.7264 5.38167 9.59534ZM15.0785 19.2028C12.5656 19.9615 8.43405 19.9617 5.92065 19.2028C4.65442 18.8209 4.38778 18.4198 4.38778 18.3566C4.38778 18.1183 5.61308 17.2774 8.72223 17.0156L9.1435 17.6658C9.78031 18.6494 11.22 18.6482 11.8561 17.6658L12.2773 17.0156C13.3299 17.1042 14.2905 17.2728 15.0785 17.5103C16.3447 17.8926 16.6114 18.2934 16.6114 18.3566C16.6114 18.4198 16.3448 18.8209 15.0785 19.2028Z" fill="#4B4649"/>
<path d="M13.6912 10.065C13.6926 10.0514 14.1223 6.1149 14.1223 6.1149C14.1755 5.56132 13.7396 5.08 13.1825 5.08H12.4139V3.67513C12.4139 3.0172 11.8786 2.4819 11.2202 2.4819H9.7788C9.12046 2.4819 8.58517 3.0172 8.58517 3.67513V5.08004H7.81649C7.22554 5.08004 6.80566 5.61779 6.87797 6.12397L7.3136 10.0663C7.37061 10.5827 7.80542 10.972 8.32513 10.972H12.6797C13.1998 10.972 13.6346 10.5819 13.6912 10.065ZM9.81572 3.71245H11.1833V5.07963H9.81572V3.71245ZM8.51581 9.74138L8.13637 6.31055H12.863L12.4885 9.74138H8.51581Z" fill="#4B4649"/>
</g>
<defs>
<clipPath id="clip0">
<rect width="21" height="21" fill="white"/>
</clipPath>
</defs>
</svg>
