<svg width="19" height="19" viewBox="0 0 19 19" fill="none" xmlns="http://www.w3.org/2000/svg">
<g clip-path="url(#clip0)">
<path fill-rule="evenodd" clip-rule="evenodd" d="M7.52933 12.3235H13.3236C13.9797 10.3919 16.7172 10.4105 17.3669 12.3235H17.8511V9.53929C17.8511 9.1924 17.5668 8.90814 17.2201 8.90814C15.797 8.90814 14.374 8.90814 12.9509 8.90814C12.6433 8.90814 12.394 8.65881 12.394 8.35135V5.0102H2.8534V5.67831H3.87724C4.61029 5.67831 4.61029 6.79203 3.87724 6.79203H2.8534V7.86864H5.52629C6.25949 7.86864 6.25949 8.98236 5.52629 8.98236H2.8534V12.3234H3.48614C4.14208 10.3918 6.87977 10.4106 7.52933 12.3235ZM1.73968 6.79203H1.07157C0.338366 6.79203 0.338366 5.67831 1.07157 5.67831H1.73968V4.45327C1.73968 4.14581 1.98901 3.89648 2.29661 3.89648C3.14882 3.89648 12.5147 3.90011 12.5147 3.89648C14.0391 3.89648 15.3669 4.65114 16.1483 5.96229L17.2401 7.79456C18.1929 7.80529 18.9648 8.58473 18.9648 9.53914V12.8803C18.9648 13.1877 18.7155 13.4371 18.408 13.4371H17.4372C17.2376 14.4199 16.3692 15.1447 15.3453 15.1447C14.3215 15.1447 13.4531 14.4199 13.2534 13.4371H7.59963C7.40002 14.4199 6.53158 15.1447 5.50773 15.1447C4.48389 15.1447 3.61544 14.4199 3.41584 13.4371H2.29661C1.98901 13.4371 1.73968 13.1877 1.73968 12.8803V11.2096H0.514635C-0.21842 11.2096 -0.21842 10.0961 0.514635 10.0961H1.73968V8.98236H0.514635C-0.21842 8.98236 -0.21842 7.86864 0.514635 7.86864H1.73968V6.79203ZM16.0672 12.2883C16.4659 12.6869 16.4659 13.3334 16.0672 13.7321C15.4259 14.3734 14.3244 13.9172 14.3244 13.0102C14.3244 12.1032 15.4259 11.647 16.0672 12.2883ZM15.9476 7.79442H13.5077V5.1611C14.2181 5.38883 14.7991 5.86691 15.1955 6.53212L15.9476 7.79442ZM6.22963 12.2883C6.62826 12.6869 6.62826 13.3334 6.22963 13.7321C5.58833 14.3734 4.48679 13.9172 4.48679 13.0102C4.48694 12.1032 5.58833 11.647 6.22963 12.2883Z" fill="#4B4649"/>
</g>
<defs>
<clipPath id="clip0">
<rect width="19" height="19" fill="white"/>
</clipPath>
</defs>
</svg>
