<svg width="12" height="12" viewBox="0 0 12 12" fill="none" xmlns="http://www.w3.org/2000/svg">
<path d="M6 0C9.3084 0 12 2.69164 12 6.00004C12 9.30844 9.3084 12 6 12C2.6916 12 0 9.30844 0 6.00004C0 2.69164 2.6916 0 6 0ZM6 10.9091C8.70691 10.9091 10.9091 8.70691 10.9091 6.00004C10.9091 3.29316 8.70691 1.09091 6 1.09091C3.29309 1.09091 1.09091 3.29316 1.09091 6.00004C1.09091 8.70691 3.29313 10.9091 6 10.9091Z" fill="#4B4649"/>
<path d="M5.99992 2.54546C6.40087 2.54546 6.72705 2.87186 6.72705 3.27306C6.72705 3.67389 6.40087 4 5.99992 4C5.59898 4 5.2728 3.67389 5.2728 3.27306C5.2728 2.87186 5.59898 2.54546 5.99992 2.54546Z" fill="#4B4649"/>
<path d="M5.99996 5.09091C6.30119 5.09091 6.54541 5.33513 6.54541 5.63637V8.90909C6.54541 9.21033 6.30119 9.45455 5.99996 9.45455C5.69872 9.45455 5.4545 9.21033 5.4545 8.90909V5.63637C5.4545 5.33513 5.69872 5.09091 5.99996 5.09091Z" fill="#4B4649"/>
</svg>
