<svg width="16" height="16" viewBox="0 0 16 16" fill="none" xmlns="http://www.w3.org/2000/svg">
<g clip-path="url(#clip0)">
<path d="M14.5476 0.0100097C14.531 0.008667 14.517 0 14.4996 0H7.33301C6.23035 0 5.33301 0.897339 5.33301 2V2.66663C5.33301 3.03467 5.63159 3.33337 5.99963 3.33337C6.36768 3.33337 6.66626 3.03467 6.66626 2.66663V2C6.66626 1.63269 6.96558 1.33337 7.33301 1.33337H10.439L10.2356 1.40137C9.69568 1.58801 9.33301 2.09668 9.33301 2.66663V12.6666H7.33301C6.96558 12.6666 6.66626 12.3673 6.66626 12V10.6666C6.66626 10.2987 6.36768 10 5.99963 10C5.63159 10 5.33301 10.2987 5.33301 10.6666V12C5.33301 13.1027 6.23035 14 7.33301 14H9.33301V14.6666C9.33301 15.402 9.93091 16 10.6663 16C10.809 16 10.9443 15.9794 11.0909 15.934L15.0963 14.5986C15.637 14.412 15.9996 13.9033 15.9996 13.3334V1.33337C15.9996 0.55603 15.3296 -0.0533447 14.5476 0.0100097Z" fill="#4B4649"/>
<path d="M7.13794 6.19609L4.47131 3.52946C4.28064 3.33879 3.99402 3.28142 3.74463 3.38481C3.49597 3.48808 3.33337 3.73149 3.33337 4.00078V6.00078H0.666626C0.298706 6.00078 0 6.29948 0 6.6674C0 7.03544 0.298706 7.33415 0.666626 7.33415H3.33337V9.33415C3.33337 9.60344 3.49597 9.84672 3.74463 9.95012C3.99402 10.0534 4.28064 9.99614 4.47131 9.80546L7.13794 7.13872C7.39868 6.8781 7.39868 6.45683 7.13794 6.19609Z" fill="#4B4649"/>
</g>
<defs>
<clipPath id="clip0">
<rect width="16" height="16" fill="white"/>
</clipPath>
</defs>
</svg>
