<svg width="170" height="170" viewBox="0 0 170 170" fill="none" xmlns="http://www.w3.org/2000/svg">
<g clip-path="url(#clip0)">
<path d="M85 141.667C61.5613 141.667 42.5 122.606 42.5 99.167C42.5 75.7282 61.5613 56.667 85 56.667C108.439 56.667 127.5 75.7282 127.5 99.167C127.5 122.606 108.439 141.667 85 141.667ZM85 67.292C67.4263 67.292 53.125 81.5932 53.125 99.167C53.125 116.741 67.4263 131.042 85 131.042C102.574 131.042 116.875 116.741 116.875 99.167C116.875 81.5932 102.574 67.292 85 67.292Z" fill="#DCDCDC"/>
<path d="M76.1457 113.334C74.7857 113.334 73.4257 112.817 72.3915 111.775C70.3161 109.7 70.3161 106.335 72.3915 104.26L90.0999 86.5517C92.1753 84.4763 95.5399 84.4763 97.6153 86.5517C99.6907 88.6271 99.6907 91.9917 97.6153 94.0671L79.9069 111.775C78.8657 112.817 77.5057 113.334 76.1457 113.334Z" fill="#DCDCDC"/>
<path d="M93.854 113.334C92.494 113.334 91.134 112.817 90.0999 111.775L72.3915 94.0671C70.3161 91.9917 70.3161 88.6271 72.3915 86.5517C74.4669 84.4763 77.8315 84.4763 79.9069 86.5517L97.6153 104.26C99.6907 106.335 99.6907 109.7 97.6153 111.775C96.574 112.817 95.214 113.334 93.854 113.334Z" fill="#DCDCDC"/>
<path d="M150.521 162.916H19.4792C8.73375 162.916 0 154.183 0 143.437V26.5622C0 15.8168 8.73375 7.08301 19.4792 7.08301H150.521C161.266 7.08301 170 15.8168 170 26.5622V143.437C170 154.183 161.266 162.916 150.521 162.916ZM19.4792 17.708C14.5988 17.708 10.625 21.6818 10.625 26.5622V143.437C10.625 148.318 14.5988 152.291 19.4792 152.291H150.521C155.401 152.291 159.375 148.318 159.375 143.437V26.5622C159.375 21.6818 155.401 17.708 150.521 17.708H19.4792Z" fill="#DCDCDC"/>
<path d="M164.688 42.5H5.3125C2.38 42.5 0 40.12 0 37.1875C0 34.255 2.38 31.875 5.3125 31.875H164.688C167.62 31.875 170 34.255 170 37.1875C170 40.12 167.62 42.5 164.688 42.5Z" fill="#DCDCDC"/>
</g>
<defs>
<clipPath id="clip0">
<rect width="170" height="170" fill="white"/>
</clipPath>
</defs>
</svg>
