<svg width="17" height="17" viewBox="0 0 17 17" fill="none" xmlns="http://www.w3.org/2000/svg">

        <path d="M12.9243 11.2465C12.3689 10.6982 11.6756 10.6982 11.1237 11.2465C10.7028 11.6639 10.2818 12.0814 9.86791 12.5059C9.75471 12.6226 9.65919 12.6474 9.52123 12.5696C9.24884 12.421 8.95876 12.3007 8.69698 12.138C7.47653 11.3703 6.45418 10.3834 5.54857 9.27257C5.0993 8.72071 4.69956 8.12994 4.4201 7.46489C4.36349 7.33046 4.37411 7.24202 4.48377 7.13236C4.90474 6.72554 5.31509 6.30811 5.72899 5.89068C6.3056 5.31053 6.3056 4.63132 5.72545 4.04763C5.39646 3.7151 5.06747 3.38964 4.73847 3.05711C4.39887 2.71751 4.0628 2.37437 3.71966 2.0383C3.16427 1.49706 2.47091 1.49706 1.91905 2.04184C1.49455 2.45927 1.08773 2.88731 0.656152 3.29767C0.25641 3.67618 0.0547704 4.1396 0.0123199 4.68084C-0.0548933 5.56169 0.160897 6.39301 0.465125 7.20311C1.08773 8.8799 2.03579 10.3692 3.18549 11.7347C4.73847 13.5813 6.59215 15.0423 8.76066 16.0965C9.73702 16.5705 10.7488 16.9349 11.8489 16.995C12.606 17.0375 13.2639 16.8464 13.791 16.2557C14.1519 15.8524 14.5587 15.4845 14.9407 15.0989C15.5067 14.5258 15.5103 13.8325 14.9478 13.2664C14.2757 12.5908 13.6 11.9186 12.9243 11.2465Z"
              />
        <path d="M12.2488 8.42687L13.5541 8.204C13.3489 7.00477 12.7829 5.91875 11.9233 5.05559C11.0142 4.14644 9.86445 3.57336 8.59801 3.39648L8.41406 4.70891C9.39396 4.84688 10.2854 5.28907 10.9894 5.99304C11.6544 6.6581 12.0896 7.50003 12.2488 8.42687Z"
              />
        <path d="M14.2894 2.75221C12.7824 1.24521 10.8757 0.293616 8.77087 0L8.58691 1.31243C10.4052 1.56713 12.0537 2.39138 13.3555 3.68965C14.5901 4.92426 15.4002 6.48431 15.6938 8.20002L16.9992 7.97715C16.656 5.98905 15.7186 4.18491 14.2894 2.75221Z"
              />

</svg>
