<svg width="19" height="19" viewBox="0 0 19 19" fill="none" xmlns="http://www.w3.org/2000/svg">
<path d="M17.1396 15.15C18.3473 13.5243 19 11.5623 19 9.5C19 6.96246 18.0119 4.57681 16.2175 2.78246C14.4232 0.988186 12.0375 0 9.5 0V1.11328C11.7402 1.11328 13.8463 1.98565 15.4303 3.5697C17.0144 5.15375 17.8867 7.25982 17.8867 9.5C17.8867 11.3096 17.3172 13.0314 16.2635 14.4615L16.1359 13.0028L15.0268 13.0998L15.3179 16.4269L18.645 16.1358L18.548 15.0268L17.1396 15.15Z" fill="#4B4649"/>
<path d="M1.11328 9.49997C1.11328 7.69041 1.6828 5.96853 2.73652 4.53845L2.86414 5.99718L3.97319 5.90017L3.6821 2.57306L0.354951 2.86411L0.451955 3.97316L1.86037 3.84996C0.652717 5.47568 0 7.43765 0 9.49997C0 12.0375 0.988149 14.4232 2.78246 16.2175C4.57681 18.0118 6.96246 19 9.5 19V17.8867C7.25982 17.8867 5.15371 17.0143 3.5697 15.4303C1.98565 13.8462 1.11328 11.7402 1.11328 9.49997Z" fill="#4B4649"/>
<path d="M9.5 11.207C10.4428 11.207 11.207 10.4428 11.207 9.5C11.207 8.55723 10.4428 7.79297 9.5 7.79297C8.55723 7.79297 7.79297 8.55723 7.79297 9.5C7.79297 10.4428 8.55723 11.207 9.5 11.207Z" fill="#4B4649"/>
<path d="M14.6566 7.23904L13.5643 7.59395C13.3204 7.07587 12.9803 6.61167 12.5672 6.22447L13.2433 5.29384L12.3426 4.63945L11.6673 5.56897C11.1785 5.29825 10.6341 5.11605 10.056 5.04424V3.89648H8.94269V5.04424C8.36452 5.11605 7.8202 5.29829 7.33132 5.56897L6.65601 4.63945L5.75532 5.29384L6.43146 6.22447C6.01832 6.61167 5.67825 7.07583 5.43437 7.59395L4.34209 7.23904L3.99805 8.2978L5.08966 8.6525C5.037 8.92707 5.00909 9.21032 5.00909 9.5C5.00909 9.78968 5.037 10.0729 5.08966 10.3475L3.99805 10.7022L4.34209 11.761L5.43437 11.406C5.67829 11.9241 6.01832 12.3883 6.43146 12.7755L5.75532 13.7062L6.65601 14.3605L7.33132 13.431C7.8202 13.7017 8.36452 13.884 8.94269 13.9558V15.1035H10.056V13.9558C10.6341 13.884 11.1785 13.7017 11.6673 13.431L12.3426 14.3605L13.2433 13.7062L12.5672 12.7755C12.9803 12.3883 13.3204 11.9242 13.5643 11.406L14.6566 11.761L15.0006 10.7022L13.909 10.3475C13.9617 10.0729 13.9896 9.78968 13.9896 9.5C13.9896 9.21032 13.9617 8.92707 13.909 8.6525L15.0006 8.2978L14.6566 7.23904ZM12.3196 9.5C12.3196 11.0551 11.0545 12.3203 9.49933 12.3203C7.94418 12.3203 6.67901 11.0551 6.67901 9.5C6.67901 7.94489 7.94418 6.67969 9.49933 6.67969C11.0545 6.67969 12.3196 7.94489 12.3196 9.5Z" fill="#4B4649"/>
</svg>
